<?xml version="1.0" encoding="UTF-8" standalone="no"?>
<!-- Created with Inkscape (http://www.inkscape.org/) -->

<svg
   width="60.942539mm"
   height="122.51507mm"
   viewBox="0 0 60.942539 122.51507"
   version="1.1"
   id="svg1"
   inkscape:export-filename="beaverCharacter.svg"
   inkscape:export-xdpi="96"
   inkscape:export-ydpi="96"
   inkscape:version="1.3 (0e150ed6c4, 2023-07-21)"
   sodipodi:docname="beaverCharacter2.svg"
   xmlns:inkscape="http://www.inkscape.org/namespaces/inkscape"
   xmlns:sodipodi="http://sodipodi.sourceforge.net/DTD/sodipodi-0.dtd"
   xmlns="http://www.w3.org/2000/svg"
   xmlns:svg="http://www.w3.org/2000/svg">
  <sodipodi:namedview
     id="namedview1"
     pagecolor="#ffffff"
     bordercolor="#000000"
     borderopacity="0.25"
     inkscape:showpageshadow="2"
     inkscape:pageopacity="0.0"
     inkscape:pagecheckerboard="0"
     inkscape:deskcolor="#d1d1d1"
     inkscape:document-units="mm"
     inkscape:export-bgcolor="#ffffffff"
     inkscape:zoom="1.3166807"
     inkscape:cx="-75.948558"
     inkscape:cy="222.90902"
     inkscape:window-width="1920"
     inkscape:window-height="974"
     inkscape:window-x="1909"
     inkscape:window-y="-11"
     inkscape:window-maximized="1"
     inkscape:current-layer="layer1" />
  <defs
     id="defs1" />
  <g
     inkscape:label="Layer 1"
     inkscape:groupmode="layer"
     id="layer1"
     transform="translate(-83.465807,-34.042613)">
    <path
       style="fill:#331500;fill-opacity:1;stroke:#000000;stroke-width:1.056"
       id="path9"
       sodipodi:type="arc"
       sodipodi:cx="114.13802"
       sodipodi:cy="70.733421"
       sodipodi:rx="12.056833"
       sodipodi:ry="36.170498"
       sodipodi:start="6.0994143"
       sodipodi:end="6.0958719"
       sodipodi:open="true"
       sodipodi:arc-type="arc"
       d="M 125.99184,64.123683 A 12.056833,36.170498 0 0 1 116.35177,106.289 12.056833,36.170498 0 0 1 102.28813,77.406135 12.056833,36.170498 0 0 1 111.90329,35.189664 12.056833,36.170498 0 0 1 125.98396,63.997752" />
    <path
       style="fill:#a05a2c;fill-opacity:1;stroke:#000000;stroke-width:1.05011"
       id="path8"
       sodipodi:type="arc"
       sodipodi:cx="113.93709"
       sodipodi:cy="121.77402"
       sodipodi:rx="29.941135"
       sodipodi:ry="31.749662"
       sodipodi:start="6.0994143"
       sodipodi:end="6.0979597"
       sodipodi:arc-type="arc"
       d="M 143.37406,115.97214 A 29.941135,31.749662 0 0 1 119.41919,152.98695 29.941135,31.749662 0 0 1 84.504101,127.5986 29.941135,31.749662 0 0 1 108.43358,90.565317 29.941135,31.749662 0 0 1 143.36607,115.92674"
       sodipodi:open="true" />
    <path
       style="opacity:0.6;fill:#333333;fill-opacity:1;stroke:#ffffff;stroke-width:0;stroke-dasharray:none;stroke-opacity:0.995575"
       d="m 91.696683,141.31315 c -0.206843,-1.0683 0.153954,-2.13846 0.865021,-2.73306 0.0456,-0.0382 0.06656,-0.10716 0.09983,-0.16078 0.105391,-0.11387 0.193601,-0.25644 0.316158,-0.34169 0.06798,-0.0473 0.160343,-0.004 0.232991,-0.0402 0.195613,-0.0963 0.353534,-0.28563 0.54915,-0.38192 0.164338,-0.0809 0.708446,-0.26359 0.898633,-0.44226 0.1548,-0.14542 0.248472,-0.37928 0.415991,-0.50245 0.251375,-0.18483 0.761954,-0.13564 1.131625,-0.48251 0.604201,-0.56762 1.216641,-1.09468 1.830447,-1.60797 0.178149,-0.14897 0.342893,-0.54296 0.515828,-0.66323 1.020812,-0.70993 -0.182915,0.49354 0.565822,-0.24125 0.29893,-0.29338 0.86242,-0.87258 1.181471,-1.06527 0.33281,-0.20102 0.12482,0.0503 0.34947,-0.0604 0.43713,-0.21513 0.93399,-0.38979 1.34796,-0.6634 0.15389,-0.10173 0.29651,-0.2282 0.43265,-0.36179 0.043,-0.0423 0.0476,-0.13848 0.0998,-0.16078 0.15533,-0.0268 0.31066,-0.0537 0.46599,-0.0805 -0.006,-0.0469 -0.0402,-0.10276 -0.0166,-0.14066 0.0236,-0.0379 0.0776,-0.0134 0.11649,-0.0201 0.34948,-0.0604 0.69897,-0.12072 1.04845,-0.18107 0.84253,-0.14551 1.62553,-0.27973 2.42973,-0.56316 0.18829,-0.0664 0.40707,0.005 0.58248,-0.10059 0.15688,-0.0948 0.27165,-0.27769 0.43265,-0.3618 0.56459,-0.29493 1.19143,-0.17697 1.73077,-0.44244 1.14506,-0.56356 2.60532,-0.59348 3.82767,-0.80458 0.53666,-0.0927 1.86646,-0.50403 2.3299,-0.40238 0.1726,0.0379 0.35894,0.0738 0.4993,0.20084 0.0314,0.0284 -0.0188,0.12023 0.0166,0.14066 0.38606,0.22284 0.95132,0.31569 1.36474,0.48199 0.51409,0.20679 0.91669,0.67415 1.41476,0.90397 0.25543,0.075 0.60041,0.15441 0.86544,0.28114 0.11245,0.0538 0.64589,0.35248 0.88211,0.42181 0.37121,0.10894 0.90619,0.0669 1.23161,0.36145 0.0387,0.0351 0.92678,1.07296 0.96543,1.1251 0.0827,0.1116 0.0787,0.29597 0.16648,0.40186 0.062,0.0748 0.18762,0.0256 0.24966,0.10042 0.33203,0.0919 0.0663,0.50324 0.1998,0.68318 0.14799,0.19964 0.37087,0.29876 0.53262,0.48216 0.0572,0.0649 -0.0114,0.20346 0.0333,0.28133 0.16647,0.29021 0.33972,0.42739 0.56596,0.76347 0.0248,0.0367 0.0111,0.0937 0.0166,0.14066 0.0499,0.087 0.0913,0.1823 0.14981,0.26121 0.31876,0.43 0.62809,0.55183 0.94877,0.98443 0.33492,0.45184 0.22347,0.70462 0.73244,1.16536 0.49118,0.44463 0.007,-0.34496 0.51597,0.34149 0.59289,0.79984 0.0635,0.35431 0.36629,1.08504 0.11096,0.26794 0.47966,0.55517 0.56595,0.76349 0.45706,1.10325 -0.4712,-0.59829 0.18315,0.54251"
       id="path27" />
    <path
       style="opacity:0.6;fill:#333333;fill-opacity:1;stroke:#ffffff;stroke-width:0;stroke-dasharray:none;stroke-opacity:0.995575"
       d="m 97.452189,144.2581 c -0.417545,0.84879 -1.000348,1.16295 -1.472052,0.85544 -0.0303,-0.0187 -0.06722,0.002 -0.100832,0.002 -0.08147,-0.0301 -0.170689,-0.0277 -0.244287,-0.0895 -0.04089,-0.0353 -0.04818,-0.14894 -0.08543,-0.19568 -0.09969,-0.12588 -0.230047,-0.15911 -0.329757,-0.28469 -0.08376,-0.10531 -0.323002,-0.50751 -0.457944,-0.57772 -0.109775,-0.0573 -0.24149,-0.002 -0.345056,-0.0854 -0.155474,-0.12443 -0.281327,-0.6363 -0.543431,-0.7731 -0.428703,-0.22307 -0.841646,-0.47881 -1.248859,-0.74421 -0.118214,-0.0771 -0.341977,0.0125 -0.445824,-0.081 -0.612972,-0.5293 0.273561,-0.1292 -0.271723,-0.38658 -0.217698,-0.10257 -0.639778,-0.28038 -0.818317,-0.46359 -0.186237,-0.19109 -0.01324,-0.14851 -0.12814,-0.29302 -0.222765,-0.28102 -0.444732,-0.64322 -0.686935,-0.8666 -0.09009,-0.0829 -0.187877,-0.1402 -0.287005,-0.18715 -0.03144,-0.0145 -0.07567,0.0399 -0.100832,0.002 -0.05696,-0.13024 -0.113913,-0.26044 -0.170955,-0.39065 -0.01921,0.0341 -0.03428,0.10078 -0.05812,0.10162 -0.02367,9.1e-4 -0.02847,-0.065 -0.04272,-0.0974 -0.12814,-0.29302 -0.256409,-0.58597 -0.384613,-0.87897 -0.309076,-0.70633 -0.59585,-1.36338 -0.955458,-1.94916 -0.08428,-0.13709 -0.115729,-0.38731 -0.213675,-0.48833 -0.08775,-0.0904 -0.202795,-0.0864 -0.287022,-0.18694 -0.29535,-0.35253 -0.424183,-1.01644 -0.699053,-1.36316 -0.58355,-0.73617 -1.019887,-2.09637 -1.468277,-3.12116 -0.196884,-0.44987 -0.765897,-1.45356 -0.854693,-1.95325 -0.03311,-0.18632 -0.07101,-0.38398 -0.05481,-0.59422 0.0033,-0.0469 0.05911,-0.0561 0.05811,-0.10161 -0.01147,-0.50082 -0.134448,-1.09123 -0.17988,-1.58323 -0.05646,-0.61182 0.03577,-1.2778 -0.0049,-1.88858 -0.04058,-0.28705 -0.104819,-0.66125 -0.124999,-0.98901 -0.0083,-0.13938 -0.02948,-0.82532 -0.06687,-1.09076 -0.05878,-0.41705 -0.232581,-0.89637 -0.195195,-1.38375 0.0049,-0.058 0.211107,-1.53133 0.223209,-1.59974 0.02598,-0.14602 0.109448,-0.25546 0.131471,-0.40301 0.0149,-0.10425 -0.04289,-0.19276 -0.0275,-0.29699 -0.05513,-0.36968 0.205725,-0.37046 0.247464,-0.60658 0.04637,-0.26183 0.02616,-0.53289 0.06126,-0.79778 0.01324,-0.0937 0.09421,-0.11362 0.116056,-0.20356 0.08147,-0.33471 0.09256,-0.58216 0.177314,-1.00134 0.01,-0.0457 0.03874,-0.068 0.05812,-0.10183 0.02451,-0.10036 0.05497,-0.19775 0.07336,-0.30136 0.09985,-0.56399 0.06475,-0.93053 0.165242,-1.49793 0.10497,-0.59259 0.250183,-0.64204 0.308697,-1.40438 0.05646,-0.73571 -0.156301,0.2044 0.0033,-0.69599 0.185741,-1.04902 0.139913,-0.27671 0.37885,-1.00959 0.08759,-0.26875 0.109106,-0.79244 0.177298,-1.00135 0.360703,-1.10642 -0.130979,0.81085 0.189416,-0.50483"
       id="path27-9" />
    <path
       style="fill:#a05a2c;fill-opacity:1;stroke:#000000;stroke-width:0.555591"
       id="path8-5"
       sodipodi:type="arc"
       sodipodi:cx="112.42442"
       sodipodi:cy="143.61595"
       sodipodi:rx="21.016708"
       sodipodi:ry="12.661409"
       sodipodi:start="6.0994143"
       sodipodi:end="6.0979597"
       sodipodi:arc-type="arc"
       d="m 133.08724,141.30223 a 21.016708,12.661409 0 0 1 -16.81474,14.76109 21.016708,12.661409 0 0 1 -24.508098,-10.12459 21.016708,12.661409 0 0 1 16.796918,-14.76846 21.016708,12.661409 0 0 1 24.52032,10.11385"
       sodipodi:open="true" />
    <path
       style="fill:#ffffff;fill-opacity:1;stroke:#000000;stroke-width:0.248111"
       id="path10-6"
       sodipodi:type="arc"
       sodipodi:cx="106.30659"
       sodipodi:cy="140.63809"
       sodipodi:rx="2.3352501"
       sodipodi:ry="2.8292451"
       sodipodi:start="6.0994143"
       sodipodi:end="6.0979597"
       sodipodi:open="true"
       sodipodi:arc-type="arc"
       d="m 108.60252,140.12108 a 2.3352501,2.8292451 0 0 1 -1.86836,3.29843 2.3352501,2.8292451 0 0 1 -2.72319,-2.26238 2.3352501,2.8292451 0 0 1 1.86637,-3.30008 2.3352501,2.8292451 0 0 1 2.72455,2.25998" />
    <path
       style="fill:#000000;fill-opacity:1;stroke:#000000;stroke-width:0.148274"
       id="path10-4-1"
       sodipodi:type="arc"
       sodipodi:cx="106.50908"
       sodipodi:cy="140.77824"
       sodipodi:rx="1.3472599"
       sodipodi:ry="1.7514373"
       sodipodi:start="6.0994143"
       sodipodi:end="6.0979597"
       sodipodi:open="true"
       sodipodi:arc-type="arc"
       d="m 107.83365,140.45819 a 1.3472599,1.7514373 0 0 1 -1.07789,2.04188 1.3472599,1.7514373 0 0 1 -1.57108,-1.40052 1.3472599,1.7514373 0 0 1 1.07676,-2.0429 1.3472599,1.7514373 0 0 1 1.57185,1.39903" />
    <path
       style="fill:#ffffff;fill-opacity:1;stroke:#000000;stroke-width:0.0658838"
       id="path10-7-7-5-8"
       sodipodi:type="arc"
       sodipodi:cx="106.48061"
       sodipodi:cy="140.9994"
       sodipodi:rx="0.49399513"
       sodipodi:ry="0.94308132"
       sodipodi:start="6.0994143"
       sodipodi:end="6.0979597"
       sodipodi:open="true"
       sodipodi:arc-type="arc"
       d="m 106.96629,140.82707 a 0.49399513,0.94308132 0 0 1 -0.39523,1.09947 0.49399513,0.94308132 0 0 1 -0.57606,-0.75412 0.49399513,0.94308132 0 0 1 0.39481,-1.10003 0.49399513,0.94308132 0 0 1 0.57635,0.75333" />
    <path
       style="fill:#ffffff;fill-opacity:1;stroke:#000000;stroke-width:0.248111"
       id="path10-6-5"
       sodipodi:type="arc"
       sodipodi:cx="119.56736"
       sodipodi:cy="140.31166"
       sodipodi:rx="2.3352501"
       sodipodi:ry="2.8292451"
       sodipodi:start="6.0994143"
       sodipodi:end="6.0979597"
       sodipodi:open="true"
       sodipodi:arc-type="arc"
       d="m 121.86329,139.79465 a 2.3352501,2.8292451 0 0 1 -1.86836,3.29843 2.3352501,2.8292451 0 0 1 -2.72319,-2.26238 2.3352501,2.8292451 0 0 1 1.86638,-3.30008 2.3352501,2.8292451 0 0 1 2.72454,2.25998" />
    <path
       style="fill:#000000;fill-opacity:1;stroke:#000000;stroke-width:0.148274"
       id="path10-4-1-9"
       sodipodi:type="arc"
       sodipodi:cx="119.76984"
       sodipodi:cy="140.45181"
       sodipodi:rx="1.3472599"
       sodipodi:ry="1.7514373"
       sodipodi:start="6.0994143"
       sodipodi:end="6.0979597"
       sodipodi:open="true"
       sodipodi:arc-type="arc"
       d="m 121.09441,140.13176 a 1.3472599,1.7514373 0 0 1 -1.0779,2.04188 1.3472599,1.7514373 0 0 1 -1.57107,-1.40052 1.3472599,1.7514373 0 0 1 1.07676,-2.0429 1.3472599,1.7514373 0 0 1 1.57185,1.39903" />
    <path
       style="fill:#ffffff;fill-opacity:1;stroke:#000000;stroke-width:0.0658838"
       id="path10-7-7-5-8-1"
       sodipodi:type="arc"
       sodipodi:cx="119.74138"
       sodipodi:cy="140.67297"
       sodipodi:rx="0.49399513"
       sodipodi:ry="0.94308132"
       sodipodi:start="6.0994143"
       sodipodi:end="6.0979597"
       sodipodi:open="true"
       sodipodi:arc-type="arc"
       d="m 120.22706,140.50064 a 0.49399513,0.94308132 0 0 1 -0.39523,1.09947 0.49399513,0.94308132 0 0 1 -0.57606,-0.75412 0.49399513,0.94308132 0 0 1 0.39481,-1.10003 0.49399513,0.94308132 0 0 1 0.57634,0.75333" />
    <path
       style="fill:#000000;fill-opacity:1;stroke:#000000;stroke-width:0.594121"
       id="path10"
       sodipodi:type="arc"
       sodipodi:cx="112.65439"
       sodipodi:cy="146.57922"
       sodipodi:rx="4.9164648"
       sodipodi:ry="0.87936765"
       sodipodi:start="6.0994143"
       sodipodi:end="6.0979597"
       sodipodi:open="true"
       sodipodi:arc-type="arc"
       d="m 117.48807,146.41853 a 4.9164648,0.87936765 0 0 1 -3.9335,1.0252 4.9164648,0.87936765 0 0 1 -5.73321,-0.70318 4.9164648,0.87936765 0 0 1 3.92933,-1.02571 4.9164648,0.87936765 0 0 1 5.73607,0.70243" />
    <path
       style="fill:#808080;fill-opacity:1;stroke:#000000;stroke-width:0;stroke-dasharray:none"
       id="path11"
       sodipodi:type="arc"
       sodipodi:cx="111.01556"
       sodipodi:cy="146.93895"
       sodipodi:rx="1.2391089"
       sodipodi:ry="0.27979881"
       sodipodi:start="6.0994143"
       sodipodi:end="6.0979597"
       sodipodi:open="true"
       sodipodi:arc-type="arc"
       d="m 112.2338,146.88782 a 1.2391089,0.27979881 0 0 1 -0.99137,0.3262 1.2391089,0.27979881 0 0 1 -1.44495,-0.22374 1.2391089,0.27979881 0 0 1 0.99031,-0.32636 1.2391089,0.27979881 0 0 1 1.44568,0.2235" />
    <path
       style="fill:#000000;fill-opacity:1;stroke:#000000;stroke-width:0;stroke-dasharray:none"
       id="path11-0"
       sodipodi:type="arc"
       sodipodi:cx="111.01576"
       sodipodi:cy="147.06009"
       sodipodi:rx="1.1264907"
       sodipodi:ry="0.2296927"
       sodipodi:start="6.0994143"
       sodipodi:end="6.0979597"
       sodipodi:open="true"
       sodipodi:arc-type="arc"
       d="m 112.12328,147.01812 a 1.1264907,0.2296927 0 0 1 -0.90126,0.26778 1.1264907,0.2296927 0 0 1 -1.31363,-0.18367 1.1264907,0.2296927 0 0 1 0.90031,-0.26792 1.1264907,0.2296927 0 0 1 1.31428,0.18348" />
    <path
       style="fill:#000000;fill-opacity:1;stroke:#000000;stroke-width:0;stroke-dasharray:none"
       id="path11-0-2"
       sodipodi:type="arc"
       sodipodi:cx="113.8392"
       sodipodi:cy="147.33806"
       sodipodi:rx="1.1264907"
       sodipodi:ry="0.2296927"
       sodipodi:start="6.0994143"
       sodipodi:end="6.0979597"
       sodipodi:open="true"
       sodipodi:arc-type="arc"
       d="m 114.94673,147.29608 a 1.1264907,0.2296927 0 0 1 -0.90127,0.26779 1.1264907,0.2296927 0 0 1 -1.31363,-0.18367 1.1264907,0.2296927 0 0 1 0.90031,-0.26792 1.1264907,0.2296927 0 0 1 1.31428,0.18348" />
    <path
       style="fill:#808080;fill-opacity:1;stroke:#000000;stroke-width:0;stroke-dasharray:none"
       id="path11-4"
       sodipodi:type="arc"
       sodipodi:cx="113.86761"
       sodipodi:cy="146.93935"
       sodipodi:rx="1.2391089"
       sodipodi:ry="0.27979881"
       sodipodi:start="6.0994143"
       sodipodi:end="6.0979597"
       sodipodi:open="true"
       sodipodi:arc-type="arc"
       d="m 115.08585,146.88822 a 1.2391089,0.27979881 0 0 1 -0.99137,0.3262 1.2391089,0.27979881 0 0 1 -1.44495,-0.22374 1.2391089,0.27979881 0 0 1 0.99032,-0.32637 1.2391089,0.27979881 0 0 1 1.44567,0.22351" />
    <path
       style="fill:#000000;fill-opacity:1;stroke:#000000;stroke-width:0;stroke-dasharray:none"
       id="path11-0-4"
       sodipodi:type="arc"
       sodipodi:cx="113.8836"
       sodipodi:cy="147.0202"
       sodipodi:rx="1.1264907"
       sodipodi:ry="0.2296927"
       sodipodi:start="6.0994143"
       sodipodi:end="6.0979597"
       sodipodi:open="true"
       sodipodi:arc-type="arc"
       d="m 114.99112,146.97823 a 1.1264907,0.2296927 0 0 1 -0.90127,0.26778 1.1264907,0.2296927 0 0 1 -1.31362,-0.18367 1.1264907,0.2296927 0 0 1 0.90031,-0.26792 1.1264907,0.2296927 0 0 1 1.31428,0.18348" />
    <path
       style="fill:#ffffff;fill-opacity:1;stroke:#000000;stroke-width:0;stroke-dasharray:none"
       id="path12"
       sodipodi:type="arc"
       sodipodi:cx="113.04411"
       sodipodi:cy="145.6299"
       sodipodi:rx="1.3090587"
       sodipodi:ry="0.10992096"
       sodipodi:start="6.0994143"
       sodipodi:end="6.0979597"
       sodipodi:open="true"
       sodipodi:arc-type="arc"
       d="m 114.33113,145.60981 a 1.3090587,0.10992096 0 0 1 -1.04733,0.12815 1.3090587,0.10992096 0 0 1 -1.52653,-0.0879 1.3090587,0.10992096 0 0 1 1.04622,-0.12821 1.3090587,0.10992096 0 0 1 1.52729,0.0878" />
    <path
       style="fill:#ffffff;fill-opacity:1;stroke:#000000;stroke-width:0;stroke-dasharray:none"
       id="path12-9"
       sodipodi:type="arc"
       sodipodi:cx="-62.518295"
       sodipodi:cy="-176.40024"
       sodipodi:rx="0.1099209"
       sodipodi:ry="0.39971256"
       sodipodi:start="6.0994143"
       sodipodi:end="6.0979597"
       sodipodi:open="true"
       sodipodi:arc-type="arc"
       d="m -62.410225,-176.47328 a 0.1099209,0.39971256 0 0 1 -0.08794,0.466 0.1099209,0.39971256 0 0 1 -0.128182,-0.31963 0.1099209,0.39971256 0 0 1 0.08785,-0.46623 0.1099209,0.39971256 0 0 1 0.128245,0.31929"
       transform="matrix(0.52709751,-0.84980481,-0.84980481,-0.52709751,0,0)" />
    <path
       style="fill:#999999;fill-opacity:1;stroke:#000000;stroke-width:0;stroke-dasharray:none"
       d="m 108.0371,43.605547 c -2.38004,28.155743 -1.86009,17.815592 -2.45072,30.955729"
       id="path14" />
    <path
       style="fill:#999999;fill-opacity:1;stroke:#000000;stroke-width:0;stroke-dasharray:none"
       d="m 111.43041,46.002121 c -5.00035,8.257471 1.63147,21.108129 -2.63924,30.156873"
       id="path15" />
    <path
       style="fill:#999999;fill-opacity:1;stroke:#000000;stroke-width:0;stroke-dasharray:none"
       d="m 115.76632,48.398692 c -1.9046,26.028651 -1.88518,17.14968 -1.88518,26.562019"
       id="path16" />
    <path
       style="fill:#999999;fill-opacity:1;stroke:#000000;stroke-width:0;stroke-dasharray:none"
       d="m 105.77489,51.793838 c 19.37331,2.88056 4.41445,0.0071 14.89288,2.995716 0.53764,0.153348 1.09647,-0.236407 1.50814,0.199715"
       id="path17" />
    <path
       style="fill:#999999;fill-opacity:1;stroke:#000000;stroke-width:0;stroke-dasharray:none"
       d="m 103.88971,57.984984 c 4.55149,-1.199063 8.1333,3.59486 12.44216,3.59486"
       id="path18" />
    <path
       style="fill:#999999;fill-opacity:1;stroke:#000000;stroke-width:0;stroke-dasharray:none"
       d="m 99.468875,63.097426 c 5.880995,1.12377 11.685765,3.21516 17.683355,3.21516"
       id="path19" />
    <path
       style="fill:#ffffff;fill-opacity:1;stroke:#000000;stroke-width:0;stroke-dasharray:none"
       d="m 121.46813,43.282474 c 0.68497,1.577206 0.97617,3.509675 1.19168,5.370265 0.0384,0.331301 -0.0159,0.684495 0.0529,1.003341 0.0389,0.18037 0.19874,0.215821 0.24766,0.389392 0.12109,0.429558 0.006,0.945113 0.0741,1.404677 0.10675,0.723394 0.3596,1.663968 0.46672,2.390101 0.029,0.196961 -0.009,0.410698 0.0318,0.602007 0.0615,0.285184 0.22025,0.499143 0.26882,0.790727 0.12,0.720157 0.15133,1.467976 0.22966,2.201378 0.34454,3.226316 0.5635,6.377982 0.7345,9.620135 0.0866,1.641823 0.27062,3.376646 0.26459,5.016709 -0.005,1.373986 -0.0202,2.744087 -0.2413,4.037256 -0.10212,0.597347 -0.40132,1.003131 -0.3683,1.629237"
       id="path20" />
    <path
       style="fill:#ffffff;fill-opacity:1;stroke:#000000;stroke-width:0;stroke-dasharray:none"
       d="m 134.84764,100.95019 c 0.57267,1.00029 0.82185,2.20394 1.26912,3.30547 0.40045,0.98624 1.09003,1.63191 1.55847,2.53385 0.33844,0.65164 0.52535,1.43461 0.8013,2.15336 0.14054,0.36605 0.46914,0.69704 0.58589,1.12807 0.0386,0.14262 -6e-4,0.55716 0.0649,0.69954 0.14916,0.32276 0.0567,0.29639 0.18299,0.67552 0.0248,0.0747 0.10944,0.0763 0.13429,0.15086 0.0352,0.10553 0.006,0.23858 0.0325,0.34976 0.16213,0.69208 0.50549,1.31294 0.66701,2.0025 0.19148,0.81743 0.322,1.5976 0.58138,2.37631 0.13959,0.41909 0.10293,1.10959 0.14601,1.57395 0.15142,1.63225 0.30283,3.26451 0.45424,4.89676 0.0816,0.87948 0.26914,1.91953 0.25959,2.79815 -0.004,0.42832 -0.0989,0.84531 -0.12261,1.27224 -0.006,0.1173 0.0471,0.2341 0.0325,0.34977 -0.0104,0.0819 -0.0838,0.12012 -0.10186,0.19892 -0.0613,0.26761 -0.27084,1.70647 -0.29387,2.01984 -0.0315,0.42877 0.20271,-0.12043 0.0649,0.69953 -0.0272,0.1615 -0.16761,0.24022 -0.20372,0.39782 -0.28628,1.24961 0.12366,0.37821 -0.15504,0.92248"
       id="path21" />
    <path
       style="fill:#ffffff;fill-opacity:1;stroke:#000000;stroke-width:0;stroke-dasharray:none"
       d="m 120.96045,132.60464 c 0.39215,0.12577 0.80027,0.36097 1.20553,0.53443 0.36285,0.15531 0.66234,0.17547 1.00899,0.298 0.25047,0.0885 0.51952,0.23681 0.78165,0.35302 0.13352,0.0591 0.28343,0.0743 0.43356,0.15325 0.0495,0.0264 0.17211,0.13099 0.22558,0.15198 0.12135,0.0474 0.0998,0.0588 0.23528,0.1238 0.0267,0.0128 0.0394,-0.003 0.0661,0.01 0.0375,0.0184 0.0743,0.0552 0.11295,0.0758 0.23737,0.13167 0.47903,0.21201 0.71556,0.34318 0.28041,0.15547 0.54041,0.31389 0.81868,0.44733 0.1498,0.0718 0.35787,0.24097 0.50762,0.34185 0.52637,0.35458 1.05281,0.7091 1.57924,1.0636 0.28361,0.19106 0.63227,0.39953 0.90243,0.60775 0.13184,0.10132 0.24692,0.21743 0.37548,0.32218 0.0356,0.0283 0.0792,0.046 0.11294,0.0758 0.0235,0.0216 0.0249,0.0442 0.0467,0.0661 0.0738,0.0746 0.48814,0.45251 0.58166,0.5305 0.12767,0.10708 -0.008,-0.067 0.22557,0.15198 0.0457,0.0435 0.0499,0.0883 0.0934,0.13229 0.34469,0.34815 0.1348,0.0653 0.26259,0.24631"
       id="path21-3" />
    <path
       id="path22"
       style="stroke:#000000;stroke-width:0"
       d="m 121.24153,151.92664 c 0.84446,1.04919 -2.40921,1.94885 -7.26819,2.0097 -4.859,0.0609 -9.48431,-0.74011 -10.3323,-1.78925 -0.84801,-1.04916 3.50657,-0.48732 6.58313,-0.91682 10.14448,-1.41619 10.1636,-0.35551 11.01512,0.69359"
       sodipodi:nodetypes="csssc" />
    <path
       style="fill:#808080;fill-opacity:1;stroke:#000000;stroke-width:0;stroke-dasharray:none"
       id="path26"
       sodipodi:type="arc"
       sodipodi:cx="112.97134"
       sodipodi:cy="152.24178"
       sodipodi:rx="3.1526473"
       sodipodi:ry="0.50619972"
       sodipodi:start="6.0994143"
       sodipodi:end="6.0979597"
       sodipodi:open="true"
       sodipodi:arc-type="arc"
       d="m 116.0709,152.14927 a 3.1526473,0.50619972 0 0 1 -2.52233,0.59015 3.1526473,0.50619972 0 0 1 -3.67638,-0.40478 3.1526473,0.50619972 0 0 1 2.51966,-0.59044 3.1526473,0.50619972 0 0 1 3.67821,0.40435" />
    <path
       style="fill:#d35f5f;fill-opacity:1;stroke:#000000;stroke-width:0;stroke-dasharray:none"
       id="path26-0"
       sodipodi:type="arc"
       sodipodi:cx="112.95834"
       sodipodi:cy="153.5509"
       sodipodi:rx="2.8329422"
       sodipodi:ry="0.40851206"
       sodipodi:start="6.0994143"
       sodipodi:end="6.0979597"
       sodipodi:open="true"
       sodipodi:arc-type="arc"
       d="m 115.74358,153.47625 a 2.8329422,0.40851206 0 0 1 -2.26654,0.47626 2.8329422,0.40851206 0 0 1 -3.30356,-0.32666 2.8329422,0.40851206 0 0 1 2.26414,-0.4765 2.8329422,0.40851206 0 0 1 3.30521,0.32632" />
    <rect
       style="fill:#ffccaa;fill-opacity:1;stroke:#ffffff;stroke-width:0;stroke-dasharray:none;stroke-opacity:0.995575"
       id="rect22"
       width="2.612314"
       height="3.7062006"
       x="111.65981"
       y="151.36096" />
    <path
       id="path22-8"
       style="stroke:#000000;stroke-width:0"
       d="m 115.46656,151.43439 c 0.24758,0.29123 -0.70634,0.54095 -2.1309,0.55784 -1.42457,0.0169 -2.78062,-0.20544 -3.02924,-0.49665 -0.24862,-0.29122 1.02807,-0.13527 1.93006,-0.25449 2.97417,-0.3931 2.97977,-0.0987 3.22942,0.19253"
       sodipodi:nodetypes="csssc" />
    <path
       style="fill:#000000;fill-opacity:1;stroke:#000000;stroke-width:0.103023;stroke-dasharray:none"
       d="m 113.16519,151.85739 c -0.10527,0.81677 -0.071,1.65623 -0.071,2.48842 0,0.10634 -0.0342,0.56829 0,0.64095 0.015,0.0319 0.0474,0.0504 0.071,0.0753"
       id="path23" />
    <path
       style="fill:#ffffff;fill-opacity:1;stroke:#000000;stroke-width:0;stroke-dasharray:none"
       d="m 114.0287,153.51609 c 0.0423,-0.18954 0.13601,-0.2691 0.12671,-0.5686 -0.008,-0.26793 -0.13837,-0.69738 -0.21229,-0.95029"
       id="path25" />
    <path
       style="fill:#ffffff;fill-opacity:1;stroke:#000000;stroke-width:0;stroke-dasharray:none"
       d="m 112.91508,155.01322 c 0.0198,-0.12842 0.0638,-0.18232 0.0594,-0.38524 -0.004,-0.18153 -0.0649,-0.47249 -0.0996,-0.64384"
       id="path25-2" />
    <path
       style="opacity:0.61;fill:#333333;fill-opacity:1;stroke:#ffffff;stroke-width:0;stroke-dasharray:none;stroke-opacity:0.774336"
       d="m 86.106054,111.48952 c -0.0564,0.19606 -0.231117,-0.0494 -0.311182,0.0584 -0.307458,0.41385 -0.307193,0.91752 -0.423421,1.53104 -0.0416,0.21963 -0.0966,0.41388 -0.122193,0.64504 -0.02029,0.18331 0.05918,0.26204 0.01919,0.5148 -0.157265,0.99389 0.0043,-0.72746 -0.136403,0.54401 -0.0163,0.14721 0.03941,0.33212 0.01919,0.51481 -0.02675,0.24162 -0.07763,0.3002 -0.08454,0.53428 -0.0029,0.0984 0.0811,0.33271 0.05684,0.40405 -0.05021,0.14766 -0.07991,-0.20493 -0.08952,0.12049 -0.0073,0.24775 0.08721,0.17193 0.005,0.41378 -0.100411,0.29533 -0.100651,-0.0848 -0.11296,0.33226 -0.0051,0.1726 -0.02945,0.94348 -0.06535,1.04909 -0.04586,0.13488 -0.109207,0.0691 -0.127171,0.23122 -0.01876,0.16941 0.104016,0.43667 0.08526,0.60609 -0.02889,0.26099 0.0066,0.55003 0.01,0.82758 0.0011,0.092 -0.08161,0.7372 -0.09377,0.84705 -0.01049,0.0947 0.03887,0.20209 0.04263,0.30304 0.01469,0.39401 0.01186,0.76324 7.1e-4,1.14037 -0.0091,0.30851 0.09934,0.7123 0.09024,1.01987 -0.0013,0.0466 -0.0327,0.0661 -0.03766,0.11074 -0.01048,0.0947 0.0487,0.20565 0.04263,0.30305 -0.0073,0.11706 -0.05224,0.20632 -0.0611,0.32251 -0.02865,0.37595 0.02663,0.40098 0.04761,0.71684 0.0114,0.17231 0.0077,0.34249 0.01918,0.5148 0.0089,0.13517 0.06073,0.27218 0.05684,0.40405 -0.0013,0.0466 -0.03629,0.0641 -0.03766,0.11075 -0.01,0.33695 0.272584,1.93764 0.341051,2.42433 0.05963,0.42383 0.131896,1.37679 0.24158,1.71723 0.02818,0.0874 0.103975,0.0951 0.132148,0.18255 0.08505,0.26398 0.04285,0.64515 0.127898,0.90913 0.02818,0.0874 0.09388,0.10841 0.132147,0.18254 0.09726,0.18847 0.243418,0.43777 0.306929,0.66815 0.01757,0.0637 0.0085,0.14021 0.02842,0.20203 0.04226,0.13118 0.140817,0.16262 0.198225,0.27385 0.0263,0.0509 0.305764,1.12641 0.326116,1.18294 0.09274,0.25766 0.211916,0.44059 0.306928,0.66814 0.05581,0.13368 0.05364,0.32946 0.122916,0.49533 0.137063,0.32828 0.258242,0.68942 0.36377,1.07221 0.01757,0.0637 0.0013,0.1496 0.02842,0.20203 0.03827,0.0742 0.101549,0.0975 0.13215,0.18256 0.03245,0.0902 0.0185,0.20589 0.04263,0.30303 0.102843,0.41445 0.293318,0.8935 0.481708,1.15374"
       id="path28" />
    <path
       style="opacity:0.6;fill:#502d16;fill-opacity:1;stroke:#ffffff;stroke-width:0;stroke-dasharray:none;stroke-opacity:0.774336"
       d="m 97.900798,114.66755 c -1.448596,-3.16111 -3.84915,-5.70177 -5.825736,-8.52547"
       id="path29" />
    <path
       style="opacity:0.6;fill:#502d16;fill-opacity:1;stroke:#ffffff;stroke-width:0;stroke-dasharray:none;stroke-opacity:0.774336"
       d="m 103.86863,113.38873 c 0.77308,-3.86541 0.32924,-1.41337 1.13673,-7.38874"
       id="path30" />
    <path
       style="opacity:0.6;fill:#502d16;fill-opacity:1;stroke:#ffffff;stroke-width:0;stroke-dasharray:none;stroke-opacity:0.774336"
       d="m 112.3941,106.99463 c 0.14209,-1.23145 0.28418,-2.46291 0.42627,-3.69437"
       id="path31" />
    <path
       style="opacity:0.6;fill:#502d16;fill-opacity:1;stroke:#ffffff;stroke-width:0;stroke-dasharray:none;stroke-opacity:0.774336"
       d="m 123.19302,103.72653 3.2681,3.2681"
       id="path32" />
    <path
       style="opacity:0.6;fill:#502d16;fill-opacity:1;stroke:#ffffff;stroke-width:0;stroke-dasharray:none;stroke-opacity:0.774336"
       d="m 122.76675,118.07774 c 3.33558,-4.85175 1.71303,-3.36944 3.97855,-5.25737"
       id="path33" />
    <path
       style="opacity:0.6;fill:#502d16;fill-opacity:1;stroke:#ffffff;stroke-width:0;stroke-dasharray:none;stroke-opacity:0.774336"
       d="m 115.80428,121.48793 c 0,-6.31941 0.02,-0.47448 -1.42091,-17.47721"
       id="path34" />
    <path
       style="opacity:0.6;fill:#502d16;fill-opacity:1;stroke:#ffffff;stroke-width:0;stroke-dasharray:none;stroke-opacity:0.774336"
       d="m 119.64074,120.77747 c 2.03664,-4.92582 4.07328,-9.85165 6.10992,-14.77748"
       id="path35" />
    <path
       style="opacity:0.6;fill:#502d16;fill-opacity:1;stroke:#ffffff;stroke-width:0;stroke-dasharray:none;stroke-opacity:0.774336"
       d="m 128.3083,122.34047 c 1.98819,-4.97046 0.63921,-1.39652 3.41019,-10.94101"
       id="path36" />
    <path
       style="opacity:0.6;fill:#502d16;fill-opacity:1;stroke:#ffffff;stroke-width:0;stroke-dasharray:none;stroke-opacity:0.774336"
       d="m 120.3512,123.76139 c -0.42627,-5.68365 -0.85255,-11.36729 -1.27882,-17.05094"
       id="path37" />
    <path
       style="opacity:0.6;fill:#502d16;fill-opacity:1;stroke:#ffffff;stroke-width:0;stroke-dasharray:none;stroke-opacity:0.774336"
       d="m 123.6193,105.99999 c 0.33154,-3.03128 0.66309,-6.062551 0.99463,-9.093829"
       id="path38" />
    <path
       style="opacity:0.6;fill:#502d16;fill-opacity:1;stroke:#ffffff;stroke-width:0;stroke-dasharray:none;stroke-opacity:0.774336"
       d="m 129.44503,108.69972 c 1.03389,-1.93544 1.61777,-4.13174 2.84182,-5.96782"
       id="path39" />
    <path
       style="opacity:0.6;fill:#502d16;fill-opacity:1;stroke:#ffffff;stroke-width:0;stroke-dasharray:none;stroke-opacity:0.774336"
       d="m 126.31903,107.13672 c -0.14903,-8.196805 0.18107,-5.22969 -0.28418,-8.951738"
       id="path40" />
    <path
       style="opacity:0.6;fill:#502d16;fill-opacity:1;stroke:#ffffff;stroke-width:0;stroke-dasharray:none;stroke-opacity:0.774336"
       d="m 122.62466,108.41554 c 0.53498,-3.84655 -0.0132,-5.24414 2.41555,-7.67292"
       id="path41" />
    <path
       style="opacity:0.6;fill:#502d16;fill-opacity:1;stroke:#ffffff;stroke-width:0;stroke-dasharray:none;stroke-opacity:0.774336"
       d="m 118.21983,104.01072 c 1.4201,-3.97235 2.92485,-5.624581 5.68365,-8.38338"
       id="path42" />
    <path
       style="opacity:0.6;fill:#502d16;fill-opacity:1;stroke:#ffffff;stroke-width:0;stroke-dasharray:none;stroke-opacity:0.774336"
       d="m 119.64074,111.25737 c 2.28236,-5.62983 0.79424,-3.92024 2.98392,-6.10992"
       id="path43" />
    <path
       style="opacity:0.6;fill:#502d16;fill-opacity:1;stroke:#ffffff;stroke-width:0;stroke-dasharray:none;stroke-opacity:0.774336"
       d="m 119.49865,117.36729 c 5.20169,-8.47132 2.56782,-6.03745 5.96783,-8.95175"
       id="path44" />
    <path
       style="opacity:0.6;fill:#502d16;fill-opacity:1;stroke:#ffffff;stroke-width:0;stroke-dasharray:none;stroke-opacity:0.774336"
       d="m 129.96179,97.804674 c -3.13067,18.727996 -0.44291,6.882586 -3.02279,12.696256"
       id="path45" />
    <path
       style="opacity:0.6;fill:#502d16;fill-opacity:1;stroke:#ffffff;stroke-width:0;stroke-dasharray:none;stroke-opacity:0.774336"
       d="m 109.69436,101.87935 c -4.32429,-6.054009 -2.07619,-4.874555 -4.54691,-6.109919"
       id="path46" />
    <path
       style="opacity:0.6;fill:#502d16;fill-opacity:1;stroke:#ffffff;stroke-width:0;stroke-dasharray:none;stroke-opacity:0.774336"
       d="m 108.27345,105.28954 c -3.59964,-2.2261 -7.19928,-4.45219 -10.798925,-6.678285"
       id="path47" />
    <path
       style="opacity:0.6;fill:#502d16;fill-opacity:1;stroke:#ffffff;stroke-width:0;stroke-dasharray:none;stroke-opacity:0.774336"
       d="m 102.87399,103.58445 c -1.37355,-0.6631 -2.7471,-1.32619 -4.120643,-1.98928"
       id="path48" />
    <path
       style="opacity:0.6;fill:#502d16;fill-opacity:1;stroke:#ffffff;stroke-width:0;stroke-dasharray:none;stroke-opacity:0.774336"
       d="m 101.45308,106.99463 c -1.989279,-1.51564 -3.978555,-3.03128 -5.967832,-4.54691"
       id="path49" />
    <path
       style="opacity:0.6;fill:#502d16;fill-opacity:1;stroke:#ffffff;stroke-width:0;stroke-dasharray:none;stroke-opacity:0.774336"
       d="m 101.31099,108.13136 c -2.036644,-1.13673 -4.073282,-2.27346 -6.109923,-3.41019"
       id="path51" />
    <path
       style="opacity:0.6;fill:#502d16;fill-opacity:1;stroke:#ffffff;stroke-width:0;stroke-dasharray:none;stroke-opacity:0.774336"
       d="M 100.74262,112.53619 C 100.45038,110.52266 100.6347,109.126 98.611255,109.126"
       id="path52" />
    <path
       style="opacity:0.6;fill:#502d16;fill-opacity:1;stroke:#ffffff;stroke-width:0;stroke-dasharray:none;stroke-opacity:0.774336"
       d="m 101.31099,105.57372 c -1.13673,-1.70509 -2.273462,-3.41019 -3.410192,-5.11528"
       id="path53" />
    <path
       style="opacity:0.6;fill:#502d16;fill-opacity:1;stroke:#ffffff;stroke-width:0;stroke-dasharray:none;stroke-opacity:0.774336"
       d="m 99.351895,97.122897 c 7.026735,10.810283 4.879405,11.291573 7.470185,10.292883"
       id="path54" />
    <path
       style="opacity:0.6;fill:#502d16;fill-opacity:1;stroke:#ffffff;stroke-width:0;stroke-dasharray:none;stroke-opacity:0.774336"
       d="m 100.31635,120.06702 c -3.434235,-0.85856 -0.421205,-0.0137 -7.24665,-5.96783"
       id="path55" />
  </g>
</svg>
