<?xml version="1.0" encoding="UTF-8" standalone="no"?>
<!-- Created with Inkscape (http://www.inkscape.org/) -->

<svg
   width="134.74785mm"
   height="64.545227mm"
   viewBox="0 0 134.74785 64.545227"
   version="1.1"
   id="svg1"
   xmlns:inkscape="http://www.inkscape.org/namespaces/inkscape"
   xmlns:sodipodi="http://sodipodi.sourceforge.net/DTD/sodipodi-0.dtd"
   xmlns="http://www.w3.org/2000/svg"
   xmlns:svg="http://www.w3.org/2000/svg">
  <sodipodi:namedview
     id="namedview1"
     pagecolor="#ffffff"
     bordercolor="#000000"
     borderopacity="0.25"
     inkscape:showpageshadow="2"
     inkscape:pageopacity="0.0"
     inkscape:pagecheckerboard="0"
     inkscape:deskcolor="#d1d1d1"
     inkscape:document-units="mm"
     inkscape:export-bgcolor="#ffffffff" />
  <defs
     id="defs1" />
  <g
     inkscape:label="Layer 1"
     inkscape:groupmode="layer"
     id="layer1"
     transform="translate(-38.584215,-97.141078)">
    <path
       id="rect1"
       style="opacity:1;fill:#552200;fill-opacity:1;stroke:#ffffff;stroke-width:0;stroke-opacity:0.774336"
       transform="matrix(0.97127103,-0.23797602,0.14707462,0.9891254,0,0)"
       d="m 144.30405,133.78827 -109.742683,1.1e-4 c -1.1e-4,7e-5 3.3e-5,4.2e-4 -7.7e-5,5e-4 -0.04432,0.0304 -0.102287,0.0555 -0.174751,0.0718 -0.14804,0.0335 -0.303743,0.0259 -0.457876,0.0126 -0.164724,-0.0238 -0.329333,-0.0432 -0.494218,-0.0531 -0.15137,-0.0186 -0.30048,-0.0164 -0.450598,-0.0144 -0.07713,-0.001 -0.154376,-0.008 -0.231521,-0.017 l -1.824899,-2e-4 c -0.007,9.8e-4 -0.01379,0.003 -0.02081,0.004 -0.267918,0.0644 -0.524471,0.16265 -0.799875,0.20513 -0.278465,0.0441 -0.556207,0.0923 -0.830195,0.15239 -0.261071,0.0584 -0.526933,0.0972 -0.7943,0.12968 l 6.2e-5,35.02687 c 0.778669,0.48325 1.607203,0.86637 2.435314,1.2395 0.625535,0.28065 1.255,0.55466 1.889936,0.81101 0.258049,0.001 0.515048,-0.005 0.770494,-0.0252 0.213749,0.007 0.424721,-0.007 0.637418,-0.0107 0.254567,-0.006 0.509917,-0.008 0.765312,-0.005 0.351176,0.0443 0.683398,0.14629 0.971934,0.38378 l 4.37e-4,6.3e-4 110.002866,-2e-4 c 0.48992,-0.20632 0.97292,-0.42656 1.45033,-0.65677 0.38391,-0.19859 0.76177,-0.40737 1.11419,-0.65406 0.39518,-0.31363 0.76137,-0.66192 1.12461,-1.01098 0.50196,-0.45815 0.92256,-0.99267 1.34149,-1.52618 0.47578,-0.57897 0.91639,-1.18577 1.34396,-1.80249 0.33688,-0.492 0.62908,-1.01436 0.92397,-1.53416 0.143,-0.2599 0.27913,-0.5241 0.41226,-0.79002 l -2.5e-4,-19.43922 c -0.0774,-0.30157 -0.14886,-0.60373 -0.18564,-0.91035 -0.0538,-0.41794 -0.10849,-0.8364 -0.19616,-1.25196 -0.0701,-0.34974 -0.15454,-0.69752 -0.27809,-1.03761 -0.029,-0.0937 -0.059,-0.1873 -0.0883,-0.28091 -0.30794,-0.15259 -0.61967,-0.45913 -0.86059,-0.97505 -0.47791,-1.02351 -0.93351,-2.05589 -1.36739,-3.09533 -0.59436,-0.26211 -1.18854,-0.5261 -1.76087,-0.84109 -0.53828,-0.31433 -1.07731,-0.63445 -1.66071,-0.84207 -0.77249,-0.30245 -1.53676,-0.62911 -2.29825,-0.9641 -0.22095,-0.0971 -0.44633,-0.19302 -0.66648,-0.29984 z m 9.3627,7.06797 c -0.001,6.1e-4 -0.003,4e-5 -0.004,6.5e-4 0.001,0.005 0.003,0.009 0.004,0.014 z m -2.12826,30.80074 c -0.64568,0.0823 -0.18327,0.0276 -0.31404,0.043 l 0.30704,-3.1e-4 c -0.005,-0.008 -0.009,-0.0163 -0.0139,-0.0242 0.007,-0.007 0.0139,-0.0123 0.0209,-0.0185 z" />
    <path
       id="path1"
       style="opacity:1;fill:#deaa87;stroke:#ffffff;stroke-width:0;stroke-opacity:0.774336"
       d="m 53.063428,124.23221 c -0.132701,0.0608 -0.276654,0.0889 -0.42013,0.1111 -0.163485,0.0157 -0.326229,0.0356 -0.487825,0.0651 -0.149761,0.0176 -0.294256,0.0553 -0.439767,0.093 -0.194328,0.0445 -0.393777,0.0567 -0.592212,0.0682 -0.16215,0.008 -0.324445,0.0125 -0.486792,0.0145 -0.06012,-10e-4 -0.119846,0.004 -0.179317,0.0114 -0.241507,0.15112 -0.495653,0.28361 -0.761194,0.38705 -0.25074,0.1275 -0.48548,0.2857 -0.746724,0.39326 -0.263981,0.10988 -0.526653,0.22366 -0.783932,0.3483 -0.36908,0.18068 -0.752427,0.32672 -1.141015,0.45992 -0.04163,0.0141 -0.0838,0.0267 -0.125574,0.0403 -0.185441,0.18499 -0.375598,0.36491 -0.575675,0.53485 -0.321334,0.29813 -0.709602,0.50252 -1.071253,0.74466 -0.371776,0.28086 -0.748102,0.55651 -1.123962,0.83199 -0.152243,0.10615 -0.297496,0.22043 -0.438733,0.33899 a 14.066306,19.491882 0 0 0 -4.868954,18.5782 14.066306,19.491882 0 0 0 3.824056,10.01592 c 0.133769,0.10803 0.269272,0.21385 0.398426,0.32712 0.25698,0.2712 0.55297,0.49073 0.852661,0.71055 0.297461,0.19844 0.590968,0.40206 0.907955,0.56844 0.280902,0.12774 0.545182,0.29786 0.829923,0.41703 0.245465,0.10272 0.479353,0.16009 0.736906,0.23409 1.135149,0.29499 2.311802,0.37132 3.472656,0.51263 0.858622,0.081 1.686343,0.29213 2.498556,0.57258 0.894275,0.34264 1.834693,0.53502 2.77089,0.72243 0.648844,0.12874 1.300524,0.24998 1.95492,0.35243 0.250825,-0.0601 0.499454,-0.12791 0.744657,-0.20825 0.208608,-0.0441 0.41151,-0.10787 0.617533,-0.16227 0.10645,-0.0288 0.21401,-0.0533 0.320911,-0.0806 a 14.066306,19.491882 0 0 0 7.727177,-21.11964 l -0.0036,-0.0279 A 14.066306,19.491882 0 0 0 53.063428,124.23221 Z m -4.090707,36.71817 c 0.09903,0.0334 0.195544,0.0737 0.294039,0.10852 h 0.612366 c -0.05251,-0.007 -0.105206,-0.015 -0.157613,-0.0227 -0.248916,-0.0303 -0.499009,-0.0585 -0.748792,-0.0858 z" />
    <path
       sodipodi:type="spiral"
       style="fill:none;fill-rule:evenodd;stroke:#000000;stroke-width:0.969011;stroke-dasharray:none"
       id="path2"
       sodipodi:cx="49.031124"
       sodipodi:cy="139.05548"
       sodipodi:expansion="1"
       sodipodi:revolution="3"
       sodipodi:radius="15.107169"
       sodipodi:argument="-17.778107"
       sodipodi:t0="0"
       d="m 49.031124,139.05548 c 0.362707,0.66496 -0.717408,0.81699 -1.105209,0.60284 -1.050918,-0.58032 -0.808093,-2.07362 -0.100475,-2.81326 1.265763,-1.32303 3.414716,-0.88959 4.521313,0.40189 1.623974,1.89531 0.979238,4.77607 -0.904261,6.22937 -2.510407,1.93701 -6.144886,1.0727 -7.937415,-1.40663 -2.255716,-3.11998 -1.168204,-7.51733 1.908995,-9.64547 3.726899,-2.57746 8.891824,-1.2649 11.353519,2.41137 2.901022,4.33235 1.362356,10.2676 -2.91373,13.06157 -4.936911,3.22574 -11.644238,1.46031 -14.769623,-3.4161 -3.55126,-5.54089 -1.558617,-13.02147 3.918465,-16.47767 6.144459,-3.87734 14.399148,-1.65718 18.185726,4.42083 4.203819,6.74774 1.755927,15.77715 -4.9232,19.89378"
       transform="matrix(1,0,0,1.2909735,2.8132612,-36.28261)" />
    <path
       sodipodi:type="spiral"
       style="fill:none;fill-rule:evenodd;stroke:#000000;stroke-width:0.352048;stroke-dasharray:none"
       id="path2-6"
       sodipodi:cx="49.031124"
       sodipodi:cy="139.05548"
       sodipodi:expansion="1"
       sodipodi:revolution="3"
       sodipodi:radius="15.107169"
       sodipodi:argument="-17.778107"
       sodipodi:t0="0"
       d="m 49.031124,139.05548 c 0.362707,0.66496 -0.717408,0.81699 -1.105209,0.60284 -1.050918,-0.58032 -0.808093,-2.07362 -0.100475,-2.81326 1.265763,-1.32303 3.414716,-0.88959 4.521313,0.40189 1.623974,1.89531 0.979238,4.77607 -0.904261,6.22937 -2.510407,1.93701 -6.144886,1.0727 -7.937415,-1.40663 -2.255716,-3.11998 -1.168204,-7.51733 1.908995,-9.64547 3.726899,-2.57746 8.891824,-1.2649 11.353519,2.41137 2.901022,4.33235 1.362356,10.2676 -2.91373,13.06157 -4.936911,3.22574 -11.644238,1.46031 -14.769623,-3.4161 -3.55126,-5.54089 -1.558617,-13.02147 3.918465,-16.47767 6.144459,-3.87734 14.399148,-1.65718 18.185726,4.42083 4.203819,6.74774 1.755927,15.77715 -4.9232,19.89378"
       transform="matrix(0.90324664,0,0,1.1660675,6.8307606,-19.190547)" />
    <path
       style="opacity:1;fill:#28170b;fill-opacity:1;stroke:#ffffff;stroke-width:0;stroke-opacity:0.774336"
       d="m 94.646143,136.44317 c 13.664407,0 27.328827,0 40.993237,0"
       id="path4" />
    <path
       style="opacity:1;fill:#28170b;fill-opacity:1;stroke:#ffffff;stroke-width:0;stroke-opacity:0.774336"
       d="m 122.37686,131.01759 c 19.37051,-12.51012 13.87819,-7.04599 19.49188,-12.65967"
       id="path5" />
    <path
       style="opacity:1;fill:#28170b;fill-opacity:1;stroke:#ffffff;stroke-width:0;stroke-opacity:0.774336"
       d="m 89.421514,138.05074 c 5.250741,2.52171 11.059866,-7.03315 17.281466,-7.03315"
       id="path6" />
    <path
       style="opacity:1;fill:#28170b;fill-opacity:1;stroke:#ffffff;stroke-width:0;stroke-opacity:0.774336"
       d="m 153.72463,129.00812 c -15.00383,5.72873 -7.18051,3.47055 -23.51083,6.63126"
       id="path7" />
    <path
       style="opacity:1;fill:#28170b;fill-opacity:1;stroke:#ffffff;stroke-width:0;stroke-opacity:0.774336"
       d="m 153.72463,108.5115 c -7.58871,1.44701 -15.29529,2.13084 -22.90799,3.4161 -0.96167,0.16236 -1.86391,0.58042 -2.81326,0.80379 -0.1956,0.046 -0.40668,-0.0436 -0.60284,0 -0.41355,0.0919 -0.78781,0.33225 -1.20568,0.4019 -1.12027,0.18671 -1.2822,-0.32538 -2.00948,0.40189"
       id="path8" />
    <path
       style="opacity:1;fill:#28170b;fill-opacity:1;stroke:#ffffff;stroke-width:0;stroke-opacity:0.774336"
       d="m 119.76455,121.37212 c 6.05193,0 -2.95336,0.0815 15.27198,-4.62178 3.42274,-0.88329 6.97141,-1.17619 10.44926,-1.80853 0.94357,-0.17156 1.8858,-0.35877 2.81326,-0.60284 1.14694,-0.30182 0.74225,-0.46956 1.80853,-0.60284 3.44629,-0.43079 -2.51694,0.67947 1.80852,-0.40189 0.19495,-0.0487 0.40963,0.0552 0.60284,0 1.05704,-0.30202 1.88681,-0.88358 3.01421,-1.20569 0.25762,-0.0736 0.53951,0.044 0.80379,0 0.54484,-0.0908 1.07172,-0.26793 1.60758,-0.40189"
       id="path9" />
    <path
       style="opacity:1;fill:#28170b;fill-opacity:1;stroke:#ffffff;stroke-width:0;stroke-opacity:0.774336"
       d="m 76.560893,136.04127 c 5.155668,-3.33071 11.035536,-5.11587 16.477671,-7.83694"
       id="path10" />
    <path
       style="opacity:1;fill:#28170b;fill-opacity:1;stroke:#ffffff;stroke-width:0;stroke-opacity:0.774336"
       d="m 71.135316,124.18538 c 13.712367,-5.12844 28.962854,-2.88148 42.801754,-7.03315"
       id="path11" />
    <path
       style="opacity:1;fill:#28170b;fill-opacity:1;stroke:#ffffff;stroke-width:0;stroke-opacity:0.774336"
       d="m 76.962787,147.29432 c 26.817603,-6.94385 14.930385,-4.19578 35.567653,-8.64074"
       id="path12" />
    <path
       style="opacity:1;fill:#28170b;fill-opacity:1;stroke:#ffffff;stroke-width:0;stroke-opacity:0.774336"
       d="m 70.532476,152.71989 c 23.078895,-5.34234 14.310362,-4.31969 25.922192,-5.42557"
       id="path13" />
    <path
       style="opacity:1;fill:#28170b;fill-opacity:1;stroke:#ffffff;stroke-width:0;stroke-opacity:0.774336"
       d="m 110.52097,135.63938 c 0.80379,-0.20095 1.60537,-0.41094 2.41137,-0.60285 0.60075,-0.14303 1.21274,-0.2394 1.80853,-0.40189 2.67644,-0.72994 4.99621,-2.41137 7.83694,-2.41137"
       id="path14" />
    <path
       style="opacity:1;fill:#28170b;fill-opacity:1;stroke:#ffffff;stroke-width:0;stroke-opacity:0.774336"
       d="m 117.95602,142.47158 c 6.80441,-5.54104 9.97878,-8.40549 16.87957,-11.85588"
       id="path15" />
    <path
       style="opacity:1;fill:#28170b;fill-opacity:1;stroke:#ffffff;stroke-width:0;stroke-opacity:0.774336"
       d="m 152.11705,123.58254 c 1.87551,-0.067 3.75054,-0.25306 5.62652,-0.20094 0.55214,0.0153 1.06165,0.3179 1.60758,0.40189 1.13065,0.17395 2.46153,0 3.61705,0"
       id="path16" />
    <path
       style="opacity:1;fill:#28170b;fill-opacity:1;stroke:#ffffff;stroke-width:0;stroke-opacity:0.774336"
       d="m 156.73883,130.41475 c 0.9282,-0.17404 5.9799,-0.73837 8.03789,-1.80853 3.5452,-2.08541 2.23448,-1.41866 3.818,-2.21042"
       id="path17" />
    <path
       style="opacity:1;fill:#28170b;fill-opacity:1;stroke:#ffffff;stroke-width:0;stroke-opacity:0.774336"
       d="m 151.11231,119.36265 c 6.14786,1.7059 8.43304,-4.62178 13.06157,-4.62178"
       id="path18" />
    <path
       style="opacity:1;fill:#28170b;fill-opacity:1;stroke:#ffffff;stroke-width:0;stroke-opacity:0.774336"
       d="m 150.10758,105.69824 c 1.80852,-0.20095 3.61386,-0.43299 5.42557,-0.60284 1.00035,-0.0938 2.01203,-0.0716 3.01421,0 1.30434,0.0932 3.33635,0.68259 4.42084,-0.4019"
       id="path19" />
    <path
       style="opacity:1;fill:#28170b;fill-opacity:1;stroke:#ffffff;stroke-width:0;stroke-opacity:0.774336"
       d="m 94.646143,125.99391 c 2.860593,0.23581 5.780347,-0.23837 8.640727,0 2.02474,0.16873 4.00228,0.80379 6.02842,0.80379"
       id="path20" />
    <path
       style="opacity:1;fill:#28170b;fill-opacity:1;stroke:#ffffff;stroke-width:0;stroke-opacity:0.774336"
       d="m 107.50676,124.18538 c 11.40956,-4.0269 6.89855,-2.23773 13.66441,-5.02368"
       id="path21" />
    <path
       style="opacity:1;fill:#28170b;fill-opacity:1;stroke:#ffffff;stroke-width:0;stroke-opacity:0.774336"
       d="m 67.518266,130.81664 c 10.93593,-7.20635 8.359444,-7.63599 14.066308,-7.63599"
       id="path22" />
    <path
       style="opacity:1;fill:#28170b;fill-opacity:1;stroke:#ffffff;stroke-width:0;stroke-opacity:0.774336"
       d="m 70.331528,138.85453 c 9.963192,3.32107 6.256395,3.21516 10.650204,3.21516"
       id="path23" />
    <path
       style="opacity:1;fill:#28170b;fill-opacity:1;stroke:#ffffff;stroke-width:0;stroke-opacity:0.774336"
       d="m 71.336264,135.03653 c 7.297645,-2.43254 4.692296,-2.41136 7.435048,-2.41136"
       id="path24" />
    <path
       style="opacity:1;fill:#28170b;fill-opacity:1;stroke:#ffffff;stroke-width:0;stroke-opacity:0.774336"
       d="m 69.527739,148.90189 c 5.420429,1.25087 3.437313,1.20569 5.827469,1.20569"
       id="path25" />
    <path
       id="path26"
       style="opacity:1;fill:#28170b;fill-opacity:1;stroke:#ffffff;stroke-width:0;stroke-opacity:0.774336"
       d="M 170.70276,131.24367 65.910706,157.34182 c 1.404258,-0.28085 0.66762,-0.14495 2.210201,-0.40205 0.803787,-0.13396 1.605053,-0.2868 2.411739,-0.40204 0.198928,-0.0284 0.422816,0.0899 0.602547,0 0.08473,-0.0424 0.111152,-0.17107 0.201021,-0.20102 1.11826,-0.37275 2.488885,0.36373 3.61735,-0.2005 0.169452,-0.0847 0.24389,-0.29696 0.401526,-0.40205 0.385043,-0.2567 1.58519,-0.52325 1.808675,-0.60306 0.621268,-0.22189 1.182828,-0.59496 1.808676,-0.80357 0.810513,-0.27017 2.951204,0.0619 3.817854,0 0.970779,-0.0693 1.195502,-0.53286 2.00918,-0.80408 0.937621,-0.31254 2.237451,0.16297 3.215308,0 0.272416,-0.0454 0.530686,-0.16145 0.804085,-0.20051 0.265237,-0.0379 0.580639,0.14862 0.803569,0 0.654253,-0.43617 0.116441,-0.37402 0.803568,-0.60306 0.233572,-0.0779 0.591287,-0.0947 0.804085,-0.20102 0.338908,-0.16945 0.488296,-0.59339 0.803569,-0.80357 0.176241,-0.11749 0.419155,-0.0959 0.603064,-0.20102 0.290785,-0.16617 0.504016,-0.45329 0.803568,-0.60307 0.200949,-0.10047 0.402117,0.0502 0.603064,0 0.535858,-0.13396 1.090474,-0.20758 1.607654,-0.40152 0.226132,-0.0848 0.378314,-0.31235 0.602547,-0.40205 0.286591,-0.11463 0.897026,0.0343 1.205611,0 0.809893,-0.09 1.60091,-0.32096 2.41174,-0.40204 0.333253,-0.0333 0.674233,0.0551 1.004593,0 0.0934,-0.0156 0.11116,-0.17106 0.20102,-0.20102 0.88408,-0.29469 2.1079,-0.42127 3.01428,-0.60255 0.5431,-0.10862 0.77089,-0.3857 1.20562,-0.60306 0.65794,-0.32898 1.52471,-0.71081 2.2102,-1.00459 0.87074,-0.37317 2.01377,-0.12337 2.81326,-0.60307 0.16245,-0.0975 0.23259,-0.3168 0.40204,-0.40152 0.84759,-0.4238 3.77058,0.35079 4.82297,0 0.58976,-0.19659 0.81817,-0.28841 0.95136,-0.34778 0.021,0.0347 0.22879,0.0494 1.05781,-0.0543 1.97372,-0.24671 -0.61246,-0.064 1.00459,-0.60307 0.25418,-0.0847 0.53616,0 0.80409,0 0.26793,-0.13396 0.52544,-0.29027 0.80357,-0.40152 0.31096,-0.12439 0.6767,0.0657 1.00511,0 0.0929,-0.0186 0.13351,-0.13405 0.2005,-0.20103 0.13396,-0.067 0.25468,-0.17422 0.40204,-0.20102 1.56937,-0.28534 3.06548,-0.0281 4.62194,-0.20102 0.84553,-0.094 1.60664,-0.98415 2.2102,-1.40663 0.2454,-0.17179 0.54723,-0.24792 0.80409,-0.40204 0.27219,-0.16331 0.49838,-0.54151 0.80357,-0.60255 0.98523,-0.19705 2.01506,0.10518 3.01428,0 0.54932,-0.0578 1.06282,-0.31123 1.60766,-0.40204 0.63874,-0.10645 1.3817,0.15687 2.00918,0 0.14531,-0.0363 0.26807,-0.13404 0.40204,-0.20102 0.46887,-0.13397 0.92846,-0.30641 1.40663,-0.40205 0.23217,-0.0464 0.95139,0.10169 1.20561,0 0.35383,-0.23589 0.61839,-0.44806 1.00459,-0.60254 0.21629,-0.0865 2.06011,-0.76644 2.21072,-0.80409 0.25992,-0.065 0.54202,0.0581 0.80357,0 0.35212,-0.0782 0.65961,-0.29788 1.00511,-0.40153 0.32714,-0.0982 0.68057,-0.093 1.00459,-0.20102 0.0899,-0.03 0.10912,-0.17804 0.20102,-0.20102 1.17607,-0.29401 2.69201,-0.13396 3.81785,-0.60306 0.5833,-0.24304 0.99462,-0.85133 1.60766,-1.00459 0.82277,-0.2057 1.57282,-0.28814 2.41122,-0.60255 0.85705,-0.32139 1.49593,-0.77629 2.41122,-1.00511 1.15543,-0.28886 2.4156,-0.22984 3.61735,-0.40152 0.14827,-0.0212 0.25994,-0.15366 0.40204,-0.20102 0.89145,-0.29716 1.85904,-0.52355 2.81327,-0.60307 0.11817,-0.01 2.74729,-0.15155 2.81326,-0.20102 1.25728,-0.94296 0.57658,-0.63257 2.00918,-1.20561 0.38134,-0.15253 0.65831,-0.59581 1.00459,-0.80357 0.67918,-0.4075 1.03644,-0.54151 1.69706,-0.76326 0.003,-0.005 0.006,-0.0103 0.009,-0.0155 z" />
    <path
       sodipodi:type="spiral"
       style="fill:#000000;fill-rule:evenodd;stroke:#000000;stroke-width:0.765;stroke-dasharray:none"
       id="path28"
       sodipodi:cx="108.1096"
       sodipodi:cy="163.16914"
       sodipodi:expansion="1"
       sodipodi:revolution="3"
       sodipodi:radius="4.708344"
       sodipodi:argument="-18.154818"
       sodipodi:t0="0"
       d="m 108.1096,163.16914 c 0.18135,0.15113 -0.11425,0.31903 -0.25119,0.30142 -0.3711,-0.0477 -0.47193,-0.5083 -0.35166,-0.80378 0.21515,-0.52855 0.88763,-0.64931 1.3564,-0.4019 0.68794,0.36309 0.83136,1.27188 0.45213,1.909 -0.50546,0.84918 -1.65786,1.01539 -2.4616,0.50237 -1.01143,-0.64558 -1.20042,-2.04466 -0.55261,-3.01421 0.78459,-1.17426 2.43191,-1.38602 3.56681,-0.60284 1.33745,0.92295 1.572,2.81945 0.65308,4.11942 -1.06093,1.50086 -3.20718,1.75821 -4.67202,0.70331 -1.66445,-1.19865 -1.94461,-3.59504 -0.75355,-5.22463 1.33618,-1.82814 3.98301,-2.13112 5.77723,-0.80379 1.99193,1.4736 2.31773,4.37105 0.85403,6.32984"
       transform="translate(10.047361,-50.437754)" />
    <path
       id="path27"
       style="opacity:1;fill:#784421;stroke:#ffffff;stroke-width:0;stroke-opacity:0.774336"
       d="m 120.07006,104.34548 c 5.34406,-2.81249 9.11351,-3.79333 13.27214,-3.25273 3.90842,0.50808 -5.54062,0.70266 -9.87605,4.39307 -4.33542,3.6904 -2.17211,10.00856 -5.82796,8.97451 -3.65585,-1.03405 -2.59822,-1.34436 1.73455,-5.03552"
       sodipodi:nodetypes="csssc" />
    <path
       id="path27-9"
       style="fill:#784421;stroke:#ffffff;stroke-width:0;stroke-opacity:0.774336"
       d="m 125.06392,102.24339 c 0.0631,-2.524383 -0.39303,-3.942467 -1.70645,-4.920483 -1.23438,-0.919169 1.0395,1.817299 0.28497,4.374373 -0.75454,2.55709 -4.45168,4.23022 -3.01809,4.88802 1.43361,0.65781 1.32314,0.24723 2.07872,-2.30937"
       sodipodi:nodetypes="csssc" />
  </g>
</svg>
