<?xml version="1.0" encoding="UTF-8" standalone="no"?>
<!-- Created with Inkscape (http://www.inkscape.org/) -->

<svg
   width="171.88556mm"
   height="31.621929mm"
   viewBox="0 0 171.88556 31.621929"
   version="1.1"
   id="svg1"
   xmlns:inkscape="http://www.inkscape.org/namespaces/inkscape"
   xmlns:sodipodi="http://sodipodi.sourceforge.net/DTD/sodipodi-0.dtd"
   xmlns="http://www.w3.org/2000/svg"
   xmlns:svg="http://www.w3.org/2000/svg">
  <sodipodi:namedview
     id="namedview1"
     pagecolor="#ffffff"
     bordercolor="#000000"
     borderopacity="0.25"
     inkscape:showpageshadow="2"
     inkscape:pageopacity="0.0"
     inkscape:pagecheckerboard="0"
     inkscape:deskcolor="#d1d1d1"
     inkscape:document-units="mm"
     inkscape:export-bgcolor="#ffffff00" />
  <defs
     id="defs1" />
  <g
     inkscape:label="Layer 1"
     inkscape:groupmode="layer"
     id="layer1"
     transform="translate(-27.921896,-115.21602)">
    <path
       style="fill:#ffff00;fill-opacity:0;stroke:#000000;stroke-width:0.7;stroke-dasharray:none"
       d="M 27.956262,136.16762 C 148.74256,124.25024 111.1521,104.25 149.33333,123.7052 c 38.18124,19.4552 38.18124,19.4552 38.18124,19.4552"
       id="path1" />
    <path
       style="fill:#808080;fill-opacity:0;stroke:#659186;stroke-width:0.420836;stroke-dasharray:none;stroke-opacity:1"
       id="path3"
       sodipodi:type="arc"
       sodipodi:cx="57.545853"
       sodipodi:cy="228.94691"
       sodipodi:rx="0.64175516"
       sodipodi:ry="1.045854"
       sodipodi:start="8.0404931e-05"
       sodipodi:end="6.2824973"
       sodipodi:arc-type="arc"
       d="m 58.187608,228.947 a 0.64175516,1.045854 0 0 1 -0.641684,1.04577 0.64175516,1.045854 0 0 1 -0.641826,-1.04554 0.64175516,1.045854 0 0 1 0.641436,-1.04617 0.64175516,1.045854 0 0 1 0.642074,1.04514"
       sodipodi:open="true"
       transform="matrix(-0.39467542,0.91882061,0.91882061,0.39467542,0,0)" />
    <rect
       style="fill:#808080;fill-opacity:0;stroke:#659186;stroke-width:1.1;stroke-dasharray:none;stroke-opacity:1"
       id="rect3"
       width="0.23386084"
       height="3.7651594"
       x="57.409439"
       y="230.30084"
       transform="matrix(-0.39467542,0.91882061,0.91882061,0.39467542,0,0)" />
    <path
       id="path15"
       style="fill:#782121;fill-opacity:0.973451;stroke:#000000;stroke-width:0.1"
       d="m 199.4464,140.03856 c 0.97189,1.05367 -0.51974,1.97447 -1.91014,3.25747 -1.3904,1.28299 -3.30561,1.46929 -4.27805,0.41612 -0.97244,-1.05317 2.06576,0.28951 3.4558,-0.99389 1.39002,-1.28341 2.27062,-2.48852 2.66626,-2.71687"
       sodipodi:nodetypes="csssc" />
    <path
       style="fill:#808080;fill-opacity:0;stroke:#659186;stroke-width:1.35627;stroke-dasharray:none;stroke-opacity:1"
       d="m 193.72571,142.93248 c 5.01917,4.20608 -1.49122,2.28199 -1.49122,2.28199"
       id="path4" />
    <path
       id="rect4"
       style="fill:#659186;fill-opacity:1;stroke:#659186;stroke-width:0.376768"
       d="m 193.06565,142.54118 0.0856,-0.74475 0.78829,0.66135 -0.94691,1.1287 z"
       sodipodi:nodetypes="ccccc" />
    <rect
       style="fill:#000000;fill-opacity:0.973451;stroke:#000000;stroke-width:0.3;stroke-dasharray:none;stroke-opacity:1"
       id="rect5"
       width="0.14882812"
       height="1.5875"
       x="-46.734451"
       y="229.52725"
       transform="rotate(-64.036584)"
       inkscape:transform-center-x="0.052113255"
       inkscape:transform-center-y="-0.013801306" />
    <rect
       style="fill:#536c53;fill-opacity:0.973451;stroke:#000000;stroke-width:0;stroke-dasharray:none;stroke-opacity:1"
       id="rect28-9"
       width="0.093649611"
       height="1.6233203"
       x="41.762112"
       y="235.74832"
       transform="matrix(0.73960252,-0.67304391,0.68786823,0.72583559,0,0)" />
    <rect
       style="fill:#536c53;fill-opacity:0.973451;stroke:#000000;stroke-width:0;stroke-dasharray:none;stroke-opacity:1"
       id="rect28-9-8"
       width="0.093649611"
       height="1.6233203"
       x="41.674953"
       y="235.74225"
       transform="matrix(0.73960252,-0.67304391,0.68786823,0.72583559,0,0)" />
    <rect
       style="fill:#536c53;fill-opacity:0.973451;stroke:#000000;stroke-width:0;stroke-dasharray:none;stroke-opacity:1"
       id="rect28-9-9"
       width="0.093649611"
       height="1.6233203"
       x="41.579601"
       y="235.76628"
       transform="matrix(0.73960252,-0.67304391,0.68786823,0.72583559,0,0)" />
    <path
       id="path15-4"
       style="fill:#782121;fill-opacity:0.973451;stroke:#000000;stroke-width:0.1"
       d="m 192.74752,143.2306 c -0.77475,1.20605 0.85378,1.85465 2.44534,2.87749 1.59157,1.02285 3.51011,0.87469 4.28549,-0.33096 0.77537,-1.20565 -1.98443,0.64285 -3.5757,-0.38047 -1.59126,-1.0233 -2.66723,-2.05773 -3.09645,-2.21412"
       sodipodi:nodetypes="csssc" />
    <path
       style="fill:#782121;fill-opacity:0.973451;stroke:#000000;stroke-width:0.1;stroke-dasharray:none;stroke-opacity:1"
       d="m 193.32488,144.50867 c 0.0374,-0.16935 0.13822,-0.25473 0.26318,-0.37002"
       id="path16" />
    <path
       style="fill:#782121;fill-opacity:0.973451;stroke:#000000;stroke-width:0.1;stroke-dasharray:none;stroke-opacity:1"
       d="m 193.96319,145.09707 c -0.0139,-0.31048 -0.0342,-0.38208 0.17199,-0.57232"
       id="path17" />
    <path
       style="fill:#782121;fill-opacity:0.973451;stroke:#000000;stroke-width:0.1;stroke-dasharray:none;stroke-opacity:1"
       d="m 194.90423,145.56525 c 0.0353,-0.0538 0.0705,-0.10751 0.10577,-0.16126 0.006,-0.0165 0.0101,-0.0336 0.0185,-0.0489 0.007,-0.0137 0.0309,-0.0163 0.0344,-0.0317 0.0502,-0.20709 -0.042,0.0524 0.0211,-0.11499"
       id="path18" />
    <path
       style="fill:#782121;fill-opacity:0.973451;stroke:#000000;stroke-width:0.1;stroke-dasharray:none;stroke-opacity:1"
       d="m 197.78579,145.92951 c 0.12413,-0.0242 0.24237,0.3043 0.35021,0.34509 0.0146,0.005 0.0194,-0.0274 0.0344,-0.0317 0.0107,-0.003 0.022,8.8e-4 0.0331,0.001"
       id="path19" />
    <path
       style="fill:#782121;fill-opacity:0.973451;stroke:#000000;stroke-width:0.1;stroke-dasharray:none;stroke-opacity:1"
       d="m 198.42032,145.78956 c -0.0268,0.0343 0.21836,0.15261 0.23921,0.22477 0.0112,0.0387 0.0155,0.0513 0.0462,0.0846"
       id="path20" />
    <path
       style="fill:#782121;fill-opacity:0.973451;stroke:#000000;stroke-width:0.1;stroke-dasharray:none;stroke-opacity:1"
       d="m 198.95837,145.57952 c 0.0212,0.0229 0.0389,0.0496 0.0635,0.0688 0.0568,0.0442 0.14207,0.0813 0.17578,0.15601 0.0209,0.0464 0.015,0.0508 0.0462,0.0846"
       id="path21" />
    <path
       style="fill:#782121;fill-opacity:0.973451;stroke:#000000;stroke-width:0.1;stroke-dasharray:none;stroke-opacity:1"
       d="m 196.79516,142.99341 c 0.0802,0.0411 0.22838,0.32364 0.33436,0.3279"
       id="path22" />
    <path
       style="fill:#782121;fill-opacity:0.973451;stroke:#000000;stroke-width:0.1;stroke-dasharray:none;stroke-opacity:1"
       d="m 196.55852,143.11628 c -0.2975,0.1927 0.0552,0.27307 0.0501,0.39921"
       id="path23" />
    <path
       style="fill:#782121;fill-opacity:0.973451;stroke:#000000;stroke-width:0.1;stroke-dasharray:none;stroke-opacity:1"
       d="m 196.05883,143.19546 c 0.0379,0.15595 0.0757,0.31198 0.11356,0.46797 0.0159,0.0172 0.0404,0.0291 0.0476,0.0516 0.0181,0.0532 0.0175,0.11103 0.0264,0.16653"
       id="path24" />
    <path
       style="fill:#782121;fill-opacity:0.973451;stroke:#000000;stroke-width:0.1;stroke-dasharray:none;stroke-opacity:1"
       d="m 199.072,140.70189 c -0.0497,0.047 0.38423,0.34967 0.41231,0.4469 0.008,0.0296 -0.004,0.0975 -0.005,0.13212"
       id="path25" />
    <path
       style="fill:#782121;fill-opacity:0.973451;stroke:#000000;stroke-width:0.1;stroke-dasharray:none;stroke-opacity:1"
       d="m 198.89214,141.05875 c 0.0463,0.0791 0.10219,0.41226 0.14394,0.53538 0.005,0.0146 0.0274,0.0194 0.0317,0.0344 0.002,0.008 -0.0115,0.0106 -0.0172,0.0159"
       id="path26" />
    <path
       style="fill:#782121;fill-opacity:0.973451;stroke:#000000;stroke-width:0.1;stroke-dasharray:none;stroke-opacity:1"
       d="m 198.57476,141.54246 c 0.074,0.16487 0.0863,0.32267 0.0792,0.49969"
       id="path27" />
    <path
       style="fill:#ffffff;fill-opacity:0.973451;stroke:#000000;stroke-width:0;stroke-dasharray:none;stroke-opacity:1"
       id="path28"
       sodipodi:type="arc"
       sodipodi:cx="50.15723"
       sodipodi:cy="238.37817"
       sodipodi:rx="0.58465207"
       sodipodi:ry="0.070158191"
       sodipodi:start="8.0404931e-05"
       sodipodi:end="6.2824973"
       sodipodi:open="true"
       sodipodi:arc-type="arc"
       d="m 50.741882,238.37818 a 0.58465207,0.07015819 0 0 1 -0.584586,0.0702 0.58465207,0.07015819 0 0 1 -0.584718,-0.0701 0.58465207,0.07015819 0 0 1 0.584362,-0.0702 0.58465207,0.07015819 0 0 1 0.584942,0.0701"
       transform="rotate(-42.694466)" />
    <path
       id="path28-7"
       style="fill:#ffffff;fill-opacity:0.973451;stroke:#000000;stroke-width:0"
       d="m 196.81725,145.94144 c -0.0136,0.0363 -0.26972,-0.026 -0.57209,-0.13916 -0.30239,-0.11314 -0.53656,-0.2343 -0.52306,-0.27061 0.0135,-0.0363 0.22978,0.0682 0.53216,0.18134 0.30238,0.11313 2.4313,0.11748 0.56301,0.22837"
       sodipodi:nodetypes="csssc" />
    <path
       style="fill:#ffffff;fill-opacity:0.973451;stroke:#000000;stroke-width:0;stroke-dasharray:none;stroke-opacity:1"
       id="path28-1"
       sodipodi:type="arc"
       sodipodi:cx="240.97733"
       sodipodi:cy="-7.9238338"
       sodipodi:rx="0.58465207"
       sodipodi:ry="0.070158191"
       sodipodi:start="8.0404931e-05"
       sodipodi:end="6.2824973"
       sodipodi:open="true"
       sodipodi:arc-type="arc"
       d="m 241.56198,-7.9238282 a 0.58465207,0.07015819 0 0 1 -0.58459,0.070152 0.58465207,0.07015819 0 0 1 -0.58472,-0.070137 0.58465207,0.07015819 0 0 1 0.58437,-0.07018 0.58465207,0.07015819 0 0 1 0.58494,0.07011"
       transform="rotate(38.509664)" />
    <path
       style="fill:#ffffff;fill-opacity:0.973451;stroke:#000000;stroke-width:0;stroke-dasharray:none;stroke-opacity:1"
       id="path28-2"
       sodipodi:type="arc"
       sodipodi:cx="238.27698"
       sodipodi:cy="-29.566162"
       sodipodi:rx="0.58465207"
       sodipodi:ry="0.070158191"
       sodipodi:start="8.0404931e-05"
       sodipodi:end="6.2824973"
       sodipodi:open="true"
       sodipodi:arc-type="arc"
       d="m 238.86163,-29.566156 a 0.58465207,0.07015819 0 0 1 -0.58459,0.07015 0.58465207,0.07015819 0 0 1 -0.58471,-0.07014 0.58465207,0.07015819 0 0 1 0.58436,-0.07018 0.58465207,0.07015819 0 0 1 0.58494,0.07011"
       transform="rotate(43.351098)" />
    <path
       style="fill:#ffffff;fill-opacity:0.973451;stroke:#000000;stroke-width:0;stroke-dasharray:none;stroke-opacity:1"
       id="path28-5"
       sodipodi:type="arc"
       sodipodi:cx="-204.66823"
       sodipodi:cy="132.11952"
       sodipodi:rx="0.58465207"
       sodipodi:ry="0.070158191"
       sodipodi:start="8.0404931e-05"
       sodipodi:end="6.2824973"
       sodipodi:open="true"
       sodipodi:arc-type="arc"
       d="m -204.08358,132.11953 a 0.58465207,0.07015819 0 0 1 -0.58458,0.0702 0.58465207,0.07015819 0 0 1 -0.58472,-0.0701 0.58465207,0.07015819 0 0 1 0.58436,-0.0702 0.58465207,0.07015819 0 0 1 0.58494,0.0701"
       transform="rotate(-110.72908)" />
    <path
       style="fill:#ffffff;fill-opacity:0.973451;stroke:#000000;stroke-width:0;stroke-dasharray:none;stroke-opacity:1"
       id="path28-22"
       sodipodi:type="arc"
       sodipodi:cx="229.99385"
       sodipodi:cy="47.913792"
       sodipodi:rx="0.91914093"
       sodipodi:ry="0.10277975"
       sodipodi:start="8.0404931e-05"
       sodipodi:end="6.2824973"
       sodipodi:open="true"
       sodipodi:arc-type="arc"
       d="m 230.91299,47.9138 a 0.91914093,0.10277975 0 0 1 -0.91904,0.102771 0.91914093,0.10277975 0 0 1 -0.91924,-0.102748 0.91914093,0.10277975 0 0 1 0.91868,-0.102811 0.91914093,0.10277975 0 0 1 0.9196,0.102709"
       transform="matrix(0.90234773,0.43100878,-0.3592186,0.93325345,0,0)" />
    <path
       style="fill:#ffffff;fill-opacity:0.973451;stroke:#000000;stroke-width:0;stroke-dasharray:none;stroke-opacity:1"
       id="path28-12"
       sodipodi:type="arc"
       sodipodi:cx="188.75752"
       sodipodi:cy="127.7954"
       sodipodi:rx="0.24767694"
       sodipodi:ry="0.069578767"
       sodipodi:start="8.0404931e-05"
       sodipodi:end="6.2824973"
       sodipodi:open="true"
       sodipodi:arc-type="arc"
       d="m 189.0052,127.79541 a 0.24767694,0.06957877 0 0 1 -0.24765,0.0696 0.24767694,0.06957877 0 0 1 -0.2477,-0.0696 0.24767694,0.06957877 0 0 1 0.24755,-0.0696 0.24767694,0.06957877 0 0 1 0.2478,0.0695"
       transform="matrix(0.99698718,0.07756655,-0.00610905,0.99998134,0,0)" />
    <path
       style="fill:#ffffff;fill-opacity:0.973451;stroke:#000000;stroke-width:0;stroke-dasharray:none;stroke-opacity:1"
       id="path28-12-3"
       sodipodi:type="arc"
       sodipodi:cx="241.79027"
       sodipodi:cy="-30.99498"
       sodipodi:rx="0.24700232"
       sodipodi:ry="0.039643031"
       sodipodi:start="8.0404931e-05"
       sodipodi:end="6.2824973"
       sodipodi:open="true"
       sodipodi:arc-type="arc"
       d="m 242.03727,-30.994977 a 0.24700232,0.03964303 0 0 1 -0.24697,0.03964 0.24700232,0.03964303 0 0 1 -0.24703,-0.03963 0.24700232,0.03964303 0 0 1 0.24688,-0.03965 0.24700232,0.03964303 0 0 1 0.24712,0.03962"
       transform="matrix(0.71344485,0.70071139,-0.51566224,0.85679195,0,0)" />
    <rect
       style="fill:#536c53;fill-opacity:0.973451;stroke:#000000;stroke-width:0;stroke-dasharray:none;stroke-opacity:1"
       id="rect28"
       width="0.25991106"
       height="4.5809746"
       x="-63.014317"
       y="228.68781"
       transform="rotate(-67.958415)" />
    <rect
       style="fill:#536c53;fill-opacity:0.973451;stroke:#000000;stroke-width:0;stroke-dasharray:none;stroke-opacity:1"
       id="rect28-2"
       width="0.10310789"
       height="1.8172933"
       x="-124.09377"
       y="208.00073"
       transform="rotate(-83.722651)" />
    <rect
       style="fill:#536c53;fill-opacity:0.973451;stroke:#000000;stroke-width:0;stroke-dasharray:none;stroke-opacity:1"
       id="rect28-4"
       width="0.092565715"
       height="0.31597877"
       x="240.04878"
       y="2.1219609"
       transform="matrix(0.79773719,0.60300528,0.64160461,-0.76703554,0,0)" />
  </g>
</svg>
