<?xml version="1.0" encoding="UTF-8" standalone="no"?>
<!-- Created with Inkscape (http://www.inkscape.org/) -->

<svg
   width="17.165581mm"
   height="45.749741mm"
   viewBox="0 0 17.165581 45.749741"
   version="1.1"
   id="svg1"
   sodipodi:docname="jumpIcon.svg"
   inkscape:version="1.3 (0e150ed6c4, 2023-07-21)"
   xmlns:inkscape="http://www.inkscape.org/namespaces/inkscape"
   xmlns:sodipodi="http://sodipodi.sourceforge.net/DTD/sodipodi-0.dtd"
   xmlns="http://www.w3.org/2000/svg"
   xmlns:svg="http://www.w3.org/2000/svg">
  <sodipodi:namedview
     id="namedview1"
     pagecolor="#ffffff"
     bordercolor="#000000"
     borderopacity="0.25"
     inkscape:showpageshadow="2"
     inkscape:pageopacity="0.0"
     inkscape:pagecheckerboard="0"
     inkscape:deskcolor="#d1d1d1"
     inkscape:document-units="mm"
     inkscape:zoom="3.0220614"
     inkscape:cx="24.486597"
     inkscape:cy="97.450038"
     inkscape:window-width="2880"
     inkscape:window-height="1514"
     inkscape:window-x="-11"
     inkscape:window-y="-11"
     inkscape:window-maximized="1"
     inkscape:current-layer="layer1" />
  <defs
     id="defs1" />
  <g
     inkscape:label="Layer 1"
     inkscape:groupmode="layer"
     id="layer1"
     transform="translate(-74.504691,-108.40787)">
    <g
       id="g3"
       transform="translate(-18.329758,1.2788204)"
       style="fill:#ffaaaa">
      <g
         id="g2"
         style="fill:#ffaaaa">
        <path
           id="rect1"
           style="fill:#ffaaaa;stroke:#000000;stroke-width:0;stroke-dasharray:none;stroke-opacity:0.976471"
           d="m 98.855392,141.6929 6.501828,-0.0502 c 0.008,-6e-5 2.94272,11.3938 2.72727,11.23443 -4.74572,-3.51038 -5.61933,-5.87628 -5.63908,-5.92838 -0.0667,-0.17581 0.0663,-1.54929 -0.17777,-0.70938 l -0.1971,0.6782 c -0.0894,0.30772 -2.469004,2.55522 -2.87797,2.78165 l -4.923207,2.72578 c 1.824385,-1.01009 2.822431,-10.71843 4.586029,-10.73206 z"
           sodipodi:nodetypes="ssssssssss" />
        <path
           id="rect1-5"
           style="fill:#ffaaaa;stroke:#000000;stroke-width:0;stroke-dasharray:none;stroke-opacity:0.976471"
           d="m 98.528026,117.02222 8.072054,-0.0739 c 0.01,-9e-5 3.6534,16.78001 3.38591,16.5453 -5.89183,-5.16985 -6.97643,-8.65418 -7.00093,-8.73091 -0.0828,-0.25892 0.0823,-2.28169 -0.22072,-1.04473 l -0.2447,0.99881 c -0.11098,0.45319 -3.065274,3.76315 -3.573001,4.09662 l -6.11219,4.01434 c 2.264982,-1.48759 3.50406,-15.78537 5.693577,-15.80544 z"
           sodipodi:nodetypes="ssssssssss" />
        <path
           id="path1"
           style="fill:#ffaaaa;stroke:#000000;stroke-width:0;stroke-opacity:0.976471"
           d="m 106.39983,139.18613 a 5.4255753,19.893774 0 0 1 -7.610475,3.58071 5.4255753,19.893774 0 0 1 -0.976653,-27.90502 5.4255753,19.893774 0 0 1 7.610448,-3.58142 5.4255753,19.893774 0 0 1 0.97685,27.90493" />
      </g>
    </g>
  </g>
</svg>
