<?xml version="1.0" encoding="UTF-8" standalone="no"?>
<!-- Created with Inkscape (http://www.inkscape.org/) -->

<svg
   width="205.40503mm"
   height="168.64938mm"
   viewBox="0 0 205.40503 168.64938"
   version="1.1"
   id="svg1"
   xmlns:inkscape="http://www.inkscape.org/namespaces/inkscape"
   xmlns:sodipodi="http://sodipodi.sourceforge.net/DTD/sodipodi-0.dtd"
   xmlns:xlink="http://www.w3.org/1999/xlink"
   xmlns="http://www.w3.org/2000/svg"
   xmlns:svg="http://www.w3.org/2000/svg">
  <sodipodi:namedview
     id="namedview1"
     pagecolor="#ffffff"
     bordercolor="#000000"
     borderopacity="0.25"
     inkscape:showpageshadow="2"
     inkscape:pageopacity="0.0"
     inkscape:pagecheckerboard="true"
     inkscape:deskcolor="#d1d1d1"
     inkscape:document-units="mm" />
  <defs
     id="defs1">
    <pattern
       inkscape:collect="always"
       xlink:href="#pattern15-8"
       preserveAspectRatio="xMidYMid"
       id="pattern9"
       patternTransform="matrix(0.64340469,-0.51390715,0.52101885,0.63462248,454.71343,103.21685)"
       x="-51"
       y="0" />
    <pattern
       patternUnits="userSpaceOnUse"
       width="20"
       height="20"
       patternTransform="translate(445,105)"
       preserveAspectRatio="xMidYMid"
       style="fill:#a0a09a"
       id="pattern15-8"
       inkscape:label="Inverted braid"
       inkscape:collect="always"
       inkscape:isstock="true">
      <path
         style="stroke-width:4.8561;stroke-linecap:square;paint-order:stroke markers fill;stop-color:#000000"
         d="M 0,0 V 10 H 10 C 5,10 0,5 0,0 Z M 10,10 V 0 H 20 C 15,0 10,5 10,10 Z m 0,10 V 10 H 0 c 5,0 10,5 10,10 z M 20,10 V 20 H 10 c 5,0 10,-5 10,-10 z"
         id="path11-3"
         sodipodi:nodetypes="cccc" />
    </pattern>
  </defs>
  <g
     inkscape:label="Layer 1"
     inkscape:groupmode="layer"
     id="layer1"
     transform="translate(-3.2703568,-124.08049)">
    <g
       id="g12"
       transform="translate(-9.6454668,26.926928)">
      <path
         id="path4"
         style="fill:#1a1a1a;stroke:#fffff7;stroke-width:1.00099;stroke-dasharray:none;stroke-opacity:1"
         d="m 175.05495,99.985111 c -12.91565,-0.410093 -22.17163,8.474399 -15.73806,30.903539 2.42833,8.4658 1.10126,14.72009 -2.90008,19.49494 a 25.032037,58.562561 60.535131 0 1 -51.46353,47.8007 l -0.003,0.001 a 25.032037,58.562561 60.535131 0 1 -53.196236,-4.33617 25.032037,58.562561 60.535131 0 1 8.315771,-19.02261 c -11.062134,2.8087 -21.278684,6.58284 -29.499491,12.1145 -37.7210487,25.38197 -2.448003,93.65474 53.831339,75.26208 C 147.36072,241.62759 198.68043,201.7745 217.57845,148.07675 l 0.003,-0.003 c 3.04453,-27.03594 -23.64989,-47.48917 -42.5266,-48.088539 z" />
      <path
         id="path4-8"
         style="fill:url(#pattern9);fill-opacity:1;stroke:#fffff7;stroke-width:0;stroke-dasharray:none;stroke-opacity:1"
         d="m 172.78067,101.98241 c -12.52145,-0.39216 -21.49468,8.10338 -15.25747,29.55116 2.13031,7.32546 1.2587,12.90776 -1.79162,17.29145 a 25.032037,58.562561 60.535131 0 1 -51.64233,49.26521 l -0.003,0.001 a 25.032037,58.562561 60.535131 0 1 -53.196236,-4.33565 25.032037,58.562561 60.535131 0 1 8.950358,-19.82153 c -10.157209,2.64523 -19.530613,6.15276 -27.134261,11.19931 -36.5697644,24.27141 -2.373612,89.55665 52.188029,71.96874 61.03708,-19.67526 110.79078,-57.7841 129.11202,-109.13236 l 0.003,-0.003 c 2.95162,-25.85301 -22.92792,-45.41113 -41.22849,-45.98427 z" />
      <path
         id="path3"
         style="fill:#000000;stroke:#000000;stroke-width:0.1;stroke-dasharray:none"
         d="m 213.18448,69.540964 a 98.36908,58.755817 90 0 0 -31.47534,34.962076 98.36908,58.755817 90 0 0 10.57672,137.98256 98.36908,58.755817 90 0 0 82.41663,-17.70575 l 0.002,-0.004 A 98.36908,58.755817 90 0 0 264.12614,86.794202 98.36908,58.755817 90 0 0 213.18448,69.540964 Z m 13.9768,49.416916 a 33.32121,52.240571 7.1901489 0 1 28.36395,9.03855 33.32121,52.240571 7.1901489 0 1 0.69058,72.91954 l -10e-4,0.002 a 33.32121,52.240571 7.1901489 0 1 -47.65308,9.49056 33.32121,52.240571 7.1901489 0 1 -0.68973,-72.91983 33.32121,52.240571 7.1901489 0 1 19.28953,-18.53072 z"
         transform="matrix(0.97328981,0.22957992,-0.71818546,0.69585174,0,0)" />
      <path
         id="path3-6"
         style="fill:#1a1a1a;stroke:#ffffff;stroke-width:0.963403;stroke-dasharray:none;stroke-opacity:1"
         d="m 215.14867,70.813403 a 58.131733,97.671852 0 0 0 -31.14064,34.714377 58.131733,97.671852 0 0 0 10.46442,137.00431 58.131733,97.671852 0 0 0 81.5411,-17.58036 l 0.002,-0.004 A 58.131733,97.671852 0 0 0 265.54908,87.943741 58.131733,97.671852 0 0 0 215.14867,70.813403 Z m 11.13942,47.237477 a 33.250987,52.152787 7.755969 0 1 28.2864,8.95318 33.250987,52.152787 7.755969 0 1 0.33489,72.7271 l -0.001,0.003 a 33.250987,52.152787 7.755969 0 1 -47.6436,9.56987 33.250987,52.152787 7.755969 0 1 -0.33404,-72.72812 33.250987,52.152787 7.755969 0 1 19.3576,-18.52466 z"
         transform="matrix(0.97286434,0.23137628,-0.71531659,0.69880053,0,0)" />
      <path
         id="path3-2"
         style="fill:#808080;stroke:#000000;stroke-width:0.0756617;stroke-dasharray:none"
         d="m 217.85676,89.524009 a 44.45565,74.427719 0 0 0 -23.81445,26.452611 44.45565,74.427719 0 0 0 8.00233,104.39961 44.45565,74.427719 0 0 0 62.35828,-13.39607 l 0.002,-0.003 A 44.45565,74.427719 0 0 0 256.40011,102.57774 44.45565,74.427719 0 0 0 217.85676,89.524009 Z m 8.75618,29.147661 a 33.32121,52.240571 7.1901489 0 1 28.36395,9.03855 33.32121,52.240571 7.1901489 0 1 0.69058,72.91955 l -0.001,0.002 a 33.32121,52.240571 7.1901489 0 1 -47.65351,9.4907 33.32121,52.240571 7.1901489 0 1 -0.68886,-72.91937 33.32121,52.240571 7.1901489 0 1 19.28909,-18.53133 z"
         transform="matrix(0.97328981,0.22957992,-0.71818546,0.69585174,0,0)" />
      <path
         id="path3-2-5"
         style="fill:#1a1a1a;stroke:#ffffff;stroke-width:0.827081;stroke-dasharray:none;stroke-opacity:1"
         d="m 223.23462,96.443002 a 37.635918,63.010109 0 0 0 -4.22164,1.441844 37.635918,63.010109 0 0 0 -20.16076,22.395444 37.635918,63.010109 0 0 0 6.77444,88.38431 37.635918,63.010109 0 0 0 9.3447,8.76049 33.32121,52.240571 7.1901489 0 1 -5.92003,-5.87792 33.32121,52.240571 7.1901489 0 1 -0.0937,-0.14285 33.32121,52.240571 7.1901489 0 1 -0.29707,-0.33495 33.32121,52.240571 7.1901489 0 1 -2.96388,-4.51244 33.32121,52.240571 7.1901489 0 1 -0.1553,-0.31191 32.097423,49.890393 9.1412332 0 1 -4.93976,-50.03095 33.32121,52.240571 7.1901489 0 1 7.17946,-18.35838 33.32121,52.240571 7.1901489 0 1 47.65303,-9.49277 33.32121,52.240571 7.1901489 0 1 0.46735,0.64414 33.32121,52.240571 7.1901489 0 1 0.11365,0.12811 33.32121,52.240571 7.1901489 0 1 0.20687,0.31346 33.32121,52.240571 7.1901489 0 1 1.40571,2.13025 33.32121,52.240571 7.1901489 0 1 0.14499,0.21951 33.32121,52.240571 7.1901489 0 1 0.16895,0.30667 33.32121,52.240571 7.1901489 0 1 1.46539,2.66084 33.32121,52.240571 7.1901489 0 1 6.79452,27.68653 37.635918,63.010109 0 0 0 -14.55812,-53.51607 37.635918,63.010109 0 0 0 -28.40877,-12.493358 z"
         transform="matrix(0.97328981,0.22957992,-0.71818546,0.69585174,0,0)" />
    </g>
  </g>
</svg>
