<?xml version="1.0" encoding="UTF-8" standalone="no"?>
<!-- Created with Inkscape (http://www.inkscape.org/) -->

<svg
   width="50.220474mm"
   height="341.33423mm"
   viewBox="0 0 50.220474 341.33423"
   version="1.1"
   id="svg1"
   xmlns:inkscape="http://www.inkscape.org/namespaces/inkscape"
   xmlns:sodipodi="http://sodipodi.sourceforge.net/DTD/sodipodi-0.dtd"
   xmlns="http://www.w3.org/2000/svg"
   xmlns:svg="http://www.w3.org/2000/svg">
  <sodipodi:namedview
     id="namedview1"
     pagecolor="#505050"
     bordercolor="#ffffff"
     borderopacity="1"
     inkscape:showpageshadow="0"
     inkscape:pageopacity="0"
     inkscape:pagecheckerboard="1"
     inkscape:deskcolor="#505050"
     inkscape:document-units="mm" />
  <defs
     id="defs1" />
  <g
     inkscape:label="Layer 1"
     inkscape:groupmode="layer"
     id="layer1"
     transform="translate(-91.02246,121.62484)">
    <g
       id="g2">
      <path
         id="rect1"
         style="fill:#000000;stroke:#000000;stroke-width:0"
         d="m 103.54316,-121.62484 2.38816,1.74596 -3.58222,339.58827 -10.149624,-0.87298 z"
         sodipodi:nodetypes="ccccc" />
      <path
         style="fill:#000000;stroke:#000000;stroke-width:0"
         id="path1"
         sodipodi:type="arc"
         sodipodi:cx="116.52444"
         sodipodi:cy="160.46632"
         sodipodi:rx="24.717306"
         sodipodi:ry="24.717306"
         sodipodi:start="0.65778456"
         sodipodi:end="0.65751517"
         sodipodi:open="true"
         sodipodi:arc-type="arc"
         d="m 136.08444,175.57762 a 24.717306,24.717306 0 0 1 -34.66999,4.44973 24.717306,24.717306 0 0 1 -4.452054,-34.66969 24.717306,24.717306 0 0 1 34.669384,-4.45439 24.717306,24.717306 0 0 1 4.45673,34.66908" />
      <path
         style="fill:#333333;stroke:#000000;stroke-width:0"
         id="path1-8"
         sodipodi:type="arc"
         sodipodi:cx="118.39816"
         sodipodi:cy="161.30923"
         sodipodi:rx="20.764"
         sodipodi:ry="20.764"
         sodipodi:start="0.65778456"
         sodipodi:end="0.65751517"
         sodipodi:open="true"
         sodipodi:arc-type="arc"
         d="m 134.82973,174.00362 a 20.764,20.764 0 0 1 -29.12485,3.73803 20.764,20.764 0 0 1 -3.73999,-29.12459 20.764,20.764 0 0 1 29.12434,-3.74195 20.764,20.764 0 0 1 3.74391,29.12408" />
      <path
         style="fill:#000000;stroke:#000000;stroke-width:0"
         id="path1-8-7"
         sodipodi:type="arc"
         sodipodi:cx="127.35854"
         sodipodi:cy="162.72824"
         sodipodi:rx="7.5863132"
         sodipodi:ry="7.5863132"
         sodipodi:start="0.65778456"
         sodipodi:end="0.65751517"
         sodipodi:open="true"
         sodipodi:arc-type="arc"
         d="m 133.36196,167.36625 a 7.5863132,7.5863132 0 0 1 -10.64102,1.36572 7.5863132,7.5863132 0 0 1 -1.36644,-10.64093 7.5863132,7.5863132 0 0 1 10.64084,-1.36715 7.5863132,7.5863132 0 0 1 1.36787,10.64074" />
      <path
         style="fill:#999999;stroke:#000000;stroke-width:0"
         id="path1-8-7-9"
         sodipodi:type="arc"
         sodipodi:cx="127.59442"
         sodipodi:cy="162.69943"
         sodipodi:rx="5.0201321"
         sodipodi:ry="5.0201321"
         sodipodi:start="0.65778456"
         sodipodi:end="0.65751517"
         sodipodi:open="true"
         sodipodi:arc-type="arc"
         d="m 131.5671,165.76857 a 5.0201321,5.0201321 0 0 1 -7.04154,0.90374 5.0201321,5.0201321 0 0 1 -0.90423,-7.04148 5.0201321,5.0201321 0 0 1 7.04142,-0.90469 5.0201321,5.0201321 0 0 1 0.90517,7.04136" />
      <rect
         style="fill:#6c5353;stroke:#000000;stroke-width:0"
         id="rect2"
         width="9.2199469"
         height="37.468292"
         x="91.022461"
         y="177.92535"
         ry="4.7443619" />
      <path
         id="path2"
         style="fill:#ffffff;stroke:#000000;stroke-width:0"
         d="m 120.98588,-70.022345 c -4.35007,-16.712984 -7.83393,-29.880277 -10.25105,-38.643625 -4.80476,-17.41994 -5.3943,-17.43806 -0.19321,6.68693 7.81758,36.261399 28.91916,130.750406 20.78102,178.092505 -10.08615,58.674295 -54.243617,73.973495 -22.49541,57.468235 28.54155,-14.83817 19.23,-156.067505 12.02557,-203.580871"
         sodipodi:nodetypes="cssssc" />
    </g>
  </g>
</svg>
